0
SECTION
2
HEADER
9
$INSUNITS
70
4
9
$ACADVER
1
AC1014
9
$HANDSEED
5
FFFF
0
ENDSEC
0
SECTION
2
TABLES
0
TABLE
2
VPORT
5
8
100
AcDbSymbolTable
0
ENDTAB
0
TABLE
2
LTYPE
5
5
100
AcDbSymbolTable
0
LTYPE
5
14
100
AcDbSymbolTableRecord
100
AcDbLinetypeTableRecord
2
BYBLOCK
70
0
0
LTYPE
5
15
100
AcDbSymbolTableRecord
100
AcDbLinetypeTableRecord
2
BYLAYER
70
0
0
ENDTAB
0
TABLE
2
LAYER
5
2
100
AcDbSymbolTable
70
2
0
LAYER
5
50
100
AcDbSymbolTableRecord
100
AcDbLayerTableRecord
2
0
70
0
6
CONTINUOUS
0
ENDTAB
0
TABLE
2
STYLE
5
3
100
AcDbSymbolTable
70
1
0
STYLE
5
11
100
AcDbSymbolTableRecord
100
AcDbTextStyleTableRecord
2
STANDARD
70
0
0
ENDTAB
0
TABLE
2
VIEW
5
6
100
AcDbSymbolTable
70
0
0
ENDTAB
0
TABLE
2
UCS
5
7
100
AcDbSymbolTable
70
0
0
ENDTAB
0
TABLE
2
APPID
5
9
100
AcDbSymbolTable
70
2
0
APPID
5
12
100
AcDbSymbolTableRecord
100
AcDbRegAppTableRecord
2
ACAD
70
0
0
ENDTAB
0
TABLE
2
DIMSTYLE
5
A
100
AcDbSymbolTable
70
1
0
ENDTAB
0
TABLE
2
BLOCK_RECORD
5
1
100
AcDbSymbolTable
70
1
0
BLOCK_RECORD
5
1F
100
AcDbSymbolTableRecord
100
AcDbBlockTableRecord
2
*MODEL_SPACE
0
BLOCK_RECORD
5
1B
100
AcDbSymbolTableRecord
100
AcDbBlockTableRecord
2
*PAPER_SPACE
0
ENDTAB
0
ENDSEC
0
SECTION
2
BLOCKS
0
BLOCK
5
20
100
AcDbEntity
100
AcDbBlockBegin
2
*MODEL_SPACE
0
ENDBLK
5
21
100
AcDbEntity
100
AcDbBlockEnd
0
BLOCK
5
1C
100
AcDbEntity
100
AcDbBlockBegin
2
*PAPER_SPACE
0
ENDBLK
5
1D
100
AcDbEntity
100
AcDbBlockEnd
0
ENDSEC
0
SECTION
2
ENTITIES
0
LWPOLYLINE
5
100
100
AcDbEntity
8
OUTER_PROFILES
100
AcDbPolyline
90
36
70
1
43
0.0
10
373.62824672226907
20
99.512074940791578
10
387.30858377090334
20
106.56384183014183
42
0.18025435308476351
10
401.40651038844391
20
122.0604146567414
10
477.35778139625614
20
311.39590133308963
42
0.095838790662506917
10
479.52225480419548
20
322.58444276361922
10
479.52225480419548
20
340.57800251503716
42
0.29147341958608231
10
470.86152873030591
20
354.17261932058688
10
373.62824672226895
20
399.51324334847919
10
365.84654594607088
20
428.46880018451452
42
0.33924694303525965
10
346.53188406302064
20
443.2780549255499
10
254.00194509010944
20
443.27805492554978
42
-0.24469844322904991
10
237.6189042043296
20
451.80652619852873
10
221.84794526064752
20
474.32978977835995
42
0.24469844322905152
10
205.46490437486796
20
482.85826105133924
10
100.62470124488527
20
482.85826105133924
42
0.24469844322905113
10
84.241660359105751
20
474.32978977835995
10
68.470701415423591
20
451.80652619852867
42
-0.24469844322904952
10
52.087660529643784
20
443.27805492554972
10
-40.442278443267412
20
443.27805492554978
42
0.33924694303525876
10
-59.756940326317647
20
428.46880018451458
10
-67.538641102515697
20
399.51324334847919
10
-164.77192311055288
20
354.17261932058688
42
0.29147341958608231
10
-173.43264918444245
20
340.57800251503716
10
-173.43264918444245
20
322.58444276361922
42
0.095838790662507292
10
-171.26817577650311
20
311.39590133308957
10
-95.316904768690875
20
122.0604146567414
42
0.18025435308476379
10
-81.21897815115031
20
106.56384183014163
10
-67.53864110251584
20
99.512074940791578
10
-59.372947683403368
20
28.075037897570422
42
0.30942252176034141
10
-44.579545543587216
20
11.001552731745221
10
-5.1578972578104789
20
0.65501919181670587
42
0.065268392536963302
10
0
20
0
10
306.08960561975294
20
3.5305092183079978e-13
42
0.065268392536966438
10
311.24750287756359
20
0.65501919181711221
10
350.66915116334002
20
11.001552731745141
42
0.30942252176034291
10
365.46255330315631
20
28.075037897570425
0
CIRCLE
5
101
100
AcDbEntity
8
INTERIOR_PROFILES
100
AcDbCircle
10
-392.93445940144045
20
360.85729100287659
30
0
40
3.9999999999999911
210
0
220
0
230
-1
0
CIRCLE
5
102
100
AcDbEntity
8
INTERIOR_PROFILES
100
AcDbCircle
10
85.470903093885454
20
135.9531989318528
30
0
40
3.9999999999999973
210
0
220
0
230
-1
0
CIRCLE
5
103
100
AcDbEntity
8
INTERIOR_PROFILES
100
AcDbCircle
10
-465.25247643325099
20
333.64420247087219
30
0
40
3.9999999999999911
210
0
220
0
230
-1
0
CIRCLE
5
104
100
AcDbEntity
8
INTERIOR_PROFILES
100
AcDbCircle
10
86.844851944368173
20
360.85729100287642
30
0
40
3.9999999999999911
210
0
220
0
230
-1
0
CIRCLE
5
105
100
AcDbEntity
8
INTERIOR_PROFILES
100
AcDbCircle
10
159.16286897617869
20
333.64420247087202
30
0
40
3.9999999999999911
210
0
220
0
230
-1
0
CIRCLE
5
106
100
AcDbEntity
8
INTERIOR_PROFILES
100
AcDbCircle
10
-391.56051055095782
20
135.95319893185294
30
0
40
3.9999999999999973
210
0
220
0
230
-1
0
CIRCLE
5
107
100
AcDbEntity
8
INTERIOR_PROFILES
100
AcDbCircle
10
-107.42855351701905
20
470.98493572262669
30
0
40
3.5000000000000853
210
0
220
0
230
-1
0
LWPOLYLINE
5
108
100
AcDbEntity
8
INTERIOR_PROFILES
100
AcDbPolyline
90
8
70
1
43
0.0
10
288.05976231806937
20
144.51116173135719
10
223.05299297194352
20
144.51116173135719
42
-0.41421356237309709
10
218.05299297194352
20
149.51116173135719
10
218.05299297194352
20
292.78396748334137
42
-0.41421356237309503
10
223.05299297194352
20
297.78396748334137
10
288.05976231806937
20
297.78396748334137
42
-0.41421356237309087
10
293.05976231806943
20
292.78396748334137
10
293.05976231806966
20
149.51116173135719
42
-0.41421356237311374
0
CIRCLE
5
109
100
AcDbEntity
8
INTERIOR_PROFILES
100
AcDbCircle
10
-192.9489277334099
20
447.67460249486317
30
0
40
6.7499999999999716
210
0
220
0
230
-1
0
LWPOLYLINE
5
110
100
AcDbEntity
8
INTERIOR_PROFILES
100
AcDbPolyline
90
8
70
1
43
0.0
10
335.0423560520062
20
109.86284328197657
10
335.04235605200648
20
133.86284328197664
42
-0.41421356237307422
10
338.04235605200643
20
136.86284328197667
10
357.04235605200637
20
136.86284328197661
42
-0.41421356237309503
10
360.04235605200631
20
133.86284328197664
10
360.04235605200648
20
109.86284328197657
42
-0.41421356237309503
10
357.04235605200637
20
106.86284328197645
10
338.04235605200631
20
106.86284328197659
42
-0.41421356237308815
0
CIRCLE
5
111
100
AcDbEntity
8
INTERIOR_PROFILES
100
AcDbCircle
10
-85.140677886343212
20
324.57073335532499
30
0
40
2.9999999999999716
210
0
220
0
230
-1
0
CIRCLE
5
112
100
AcDbEntity
8
INTERIOR_PROFILES
100
AcDbCircle
10
-198.66105210273417
20
470.98493572262674
30
0
40
3.5000000000000853
210
0
220
0
230
-1
0
CIRCLE
5
113
100
AcDbEntity
8
INTERIOR_PROFILES
100
AcDbCircle
10
-187.23680336408563
20
424.36426926709987
30
0
40
3.4999999999999432
210
0
220
0
230
-1
0
CIRCLE
5
114
100
AcDbEntity
8
INTERIOR_PROFILES
100
AcDbCircle
10
-113.14067788634333
20
447.67460249486311
30
0
40
6.7499999999999716
210
0
220
0
230
-1
0
CIRCLE
5
115
100
AcDbEntity
8
INTERIOR_PROFILES
100
AcDbCircle
10
-118.85280225566731
20
424.36426926709976
30
0
40
3.4999999999999432
210
0
220
0
230
-1
0
CIRCLE
5
116
100
AcDbEntity
8
INTERIOR_PROFILES
100
AcDbCircle
10
-141.14067788634316
20
324.57073335532499
30
0
40
2.9999999999999716
210
0
220
0
230
-1
0
CIRCLE
5
117
100
AcDbEntity
8
INTERIOR_PROFILES
100
AcDbCircle
10
-220.94892773340973
20
324.57073335532499
30
0
40
2.9999999999999716
210
0
220
0
230
-1
0
LWPOLYLINE
5
118
100
AcDbEntity
8
INTERIOR_PROFILES
100
AcDbPolyline
90
8
70
1
43
0.0
10
13.02984330168357
20
149.51116173135719
10
13.02984330168357
20
292.78396748334137
42
-0.41421356237309503
10
18.02984330168357
20
297.78396748334137
10
83.03661264780942
20
297.78396748334166
42
-0.41421356237309293
10
88.036612647809704
20
292.78396748334143
10
88.036612647809491
20
149.51116173135719
42
-0.41421356237309087
10
83.03661264780942
20
144.51116173135719
10
18.029843301683428
20
144.51116173135711
42
-0.41421356237309087
0
CIRCLE
5
119
100
AcDbEntity
8
INTERIOR_PROFILES
100
AcDbCircle
10
-181.04480280987644
20
109.08368842242653
30
0
40
2.9999999999999716
210
0
220
0
230
-1
0
CIRCLE
5
120
100
AcDbEntity
8
INTERIOR_PROFILES
100
AcDbCircle
10
-164.94892773340979
20
324.57073335532499
30
0
40
2.9999999999999716
210
0
220
0
230
-1
0
LWPOLYLINE
5
121
100
AcDbEntity
8
INTERIOR_PROFILES
100
AcDbPolyline
90
8
70
1
43
0.0
10
-31.952750432253367
20
106.86284328197652
42
0.41421356237309503
10
-28.952750432253325
20
109.86284328197657
10
-28.952750432253254
20
133.8628432819765
42
0.41421356237309503
10
-31.952750432253367
20
136.86284328197661
10
-50.95275043225314
20
136.86284328197652
42
0.41421356237309503
10
-53.952750432253183
20
133.8628432819765
10
-53.952750432253254
20
109.86284328197657
42
0.41421356237309503
10
-50.95275043225314
20
106.86284328197645
0
LINE
5
122
100
AcDbEntity
8
INTERIOR_PROFILES
100
AcDbLine
10
248.6496438833592
20
59.622017381136978
30
0
11
248.46165373658607
21
13.027776226714849
31
0
0
ARC
5
123
100
AcDbEntity
8
INTERIOR_PROFILES
100
AcDbCircle
10
-252.46162118063552
20
13.011637870380213
30
0
40
4.0000000000000799
210
0
220
-0
230
-1
100
AcDbArc
50
-179.76883444628595
51
0.231165553714058
0
LINE
5
124
100
AcDbEntity
8
INTERIOR_PROFILES
100
AcDbLine
10
256.46158862468496
20
12.995499514045576
30
0
11
256.649578771118
21
59.589740584174528
31
0
0
ARC
5
125
100
AcDbEntity
8
INTERIOR_PROFILES
100
AcDbCircle
10
-252.64961132740865
20
59.60587902480227
30
0
40
4.0000000000000808
210
0
220
0
230
-1
100
AcDbArc
50
0.231165553714058
51
180.23116676113301
0
CIRCLE
5
126
100
AcDbEntity
8
INTERIOR_PROFILES
100
AcDbCircle
10
-125.0448028098765
20
109.08368842242653
30
0
40
2.9999999999999716
210
0
220
0
230
-1
0
CIRCLE
5
127
100
AcDbEntity
8
INTERIOR_PROFILES
100
AcDbCircle
10
-297.59948683713361
20
26.179551581723288
30
0
40
2.9999999999999716
210
0
220
0
230
-1
0
CIRCLE
5
128
100
AcDbEntity
8
INTERIOR_PROFILES
100
AcDbCircle
10
-107.42855351701905
20
28.040382566644126
30
0
40
3.5000000000000853
210
0
220
0
230
-1
0
CIRCLE
5
129
100
AcDbEntity
8
INTERIOR_PROFILES
100
AcDbCircle
10
41.206655012129261
20
75.476921434420191
30
0
40
2.9999999999999716
210
0
220
0
230
-1
0
LINE
5
130
100
AcDbEntity
8
INTERIOR_PROFILES
100
AcDbLine
10
57.627951883167157
20
13.027776226715062
30
0
11
57.439961736394025
21
59.622017381136978
31
0
0
ARC
5
131
100
AcDbEntity
8
INTERIOR_PROFILES
100
AcDbCircle
10
-53.439994292344579
20
59.60587902480227
30
0
40
4.0000000000000826
210
-0
220
0
230
-1
100
AcDbArc
50
-0.23116434629666455
51
179.76883444628595
0
LINE
5
132
100
AcDbEntity
8
INTERIOR_PROFILES
100
AcDbLine
10
49.440026847955039
20
59.589740752760598
30
0
11
49.628016995068265
21
12.995499514045648
31
0
0
ARC
5
133
100
AcDbEntity
8
INTERIOR_PROFILES
100
AcDbCircle
10
-53.627984439117711
20
13.011637870380355
30
0
40
4.0000000000000808
210
0
220
0
230
-1
100
AcDbArc
50
179.76883444628595
51
359.76883444628589
0
CIRCLE
5
134
100
AcDbEntity
8
INTERIOR_PROFILES
100
AcDbCircle
10
-187.23680336408563
20
74.661049022171028
30
0
40
3.4999999999999432
210
0
220
0
230
-1
0
CIRCLE
5
135
100
AcDbEntity
8
INTERIOR_PROFILES
100
AcDbCircle
10
-113.14067788634333
20
51.350715794407684
30
0
40
6.7499999999999716
210
0
220
0
230
-1
0
CIRCLE
5
136
100
AcDbEntity
8
INTERIOR_PROFILES
100
AcDbCircle
10
41.006953041103316
20
25.979849610697343
30
0
40
2.9999999999999716
210
0
220
0
230
-1
0
CIRCLE
5
137
100
AcDbEntity
8
INTERIOR_PROFILES
100
AcDbCircle
10
-322.44787373450805
20
50.828236508071704
30
0
40
25.499999999999972
210
0
220
0
230
-1
0
CIRCLE
5
138
100
AcDbEntity
8
INTERIOR_PROFILES
100
AcDbCircle
10
-198.66105210273417
20
28.040382566644126
30
0
40
3.5000000000000853
210
0
220
0
230
-1
0
LWPOLYLINE
5
139
100
AcDbEntity
8
INTERIOR_PROFILES
100
AcDbPolyline
90
4
70
1
43
0.0
10
37.34663336781523
20
82.71354598414149
10
37.504258491849782
20
43.645418386410732
42
-0.99999999999999989
10
29.504323603751175
20
43.613141673741389
10
29.346698479716338
20
82.68126927147236
42
-0.99999999999999989
0
CIRCLE
5
140
100
AcDbEntity
8
INTERIOR_PROFILES
100
AcDbCircle
10
-8.4901187826193336
20
26.179551581723288
30
0
40
2.9999999999999716
210
0
220
0
230
-1
0
CIRCLE
5
141
100
AcDbEntity
8
INTERIOR_PROFILES
100
AcDbCircle
10
-192.9489277334099
20
51.350715794407684
30
0
40
6.7499999999999716
210
0
220
0
230
-1
0
LWPOLYLINE
5
142
100
AcDbEntity
8
INTERIOR_PROFILES
100
AcDbPolyline
90
4
70
1
43
0.0
10
268.58534712790345
20
43.645418386411016
42
0.99999999999999989
10
276.58528201600234
20
43.613141673741318
10
276.74290714003661
20
82.68126927147236
42
0.99999999999999989
10
268.74297225193772
20
82.71354598414149
0
CIRCLE
5
143
100
AcDbEntity
8
INTERIOR_PROFILES
100
AcDbCircle
10
16.358268114754821
20
50.828236508071562
30
0
40
25.499999999999972
210
0
220
0
230
-1
0
CIRCLE
5
144
100
AcDbEntity
8
INTERIOR_PROFILES
100
AcDbCircle
10
-347.09655866085654
20
25.979849610697485
30
0
40
2.9999999999999716
210
0
220
0
230
-1
0
CIRCLE
5
145
100
AcDbEntity
8
INTERIOR_PROFILES
100
AcDbCircle
10
-118.85280225566731
20
74.661049022171028
30
0
40
3.4999999999999432
210
0
220
0
230
-1
0
CIRCLE
5
146
100
AcDbEntity
8
INTERIOR_PROFILES
100
AcDbCircle
10
-347.29626063188221
20
75.476921434420262
30
0
40
2.9999999999999716
210
0
220
0
230
-1
0
CIRCLE
5
147
100
AcDbEntity
8
INTERIOR_PROFILES
100
AcDbCircle
10
-8.2904168115936727
20
75.676623405445923
30
0
40
2.9999999999999716
210
0
220
0
230
-1
0
CIRCLE
5
148
100
AcDbEntity
8
INTERIOR_PROFILES
100
AcDbCircle
10
-297.79918880815956
20
75.676623405445923
30
0
40
2.9999999999999716
210
0
220
0
230
-1
0
LINE
5
149
100
AcDbEntity
8
BEND
100
AcDbLine
10
-71.528463772574753
20
101.56869820227109
30
-4.1189274213593308e-13
11
-71.528463772574753
21
397.65275848275024
31
-3.5527136788005009e-13
0
LINE
5
150
100
AcDbEntity
8
BEND
100
AcDbLine
10
-67.082579792181605
20
95.522252270732523
30
-3.5416114485542494e-13
11
373.17218541193483
21
95.522252270732523
31
-3.8302694349567901e-13
0
LINE
5
151
100
AcDbEntity
8
BEND
100
AcDbLine
10
377.61807122964683
20
397.65275762599435
30
-4.1232113521470046e-13
11
377.61807122964683
21
101.56869914934902
31
-3.5527136788005009e-13
0
LINE
5
152
100
AcDbEntity
8
BEND
100
AcDbLine
10
372.55599636478826
20
403.50306601853822
30
-3.4956870288580602e-13
11
-66.466390745035042
21
403.50306601853822
31
-3.5209224867729292e-13
0
LINE
5
153
100
AcDbEntity
8
BEND_EXTENT
100
AcDbLine
10
-75.518286442633922
20
103.62532146375061
30
-4.9737991503207013e-13
11
-75.518286442633922
21
395.79227361702129
31
-4.9737991503207013e-13
0
LWPOLYLINE
5
154
100
AcDbEntity
8
BEND_EXTENT
100
AcDbPolyline
90
4
70
1
43
0.0
10
-67.538641102515697
20
399.51324334847919
10
-67.53864110251584
20
99.512074940791578
10
373.62824672226907
20
99.512074940791564
10
373.62824672226895
20
399.51324334847919
0
LINE
5
155
100
AcDbEntity
8
BEND_EXTENT
100
AcDbLine
10
381.6078938997058
20
395.7922727602654
30
-3.5527136788005009e-13
11
381.6078938997058
21
103.62532241082846
31
-3.5527136788005009e-13
0
LINE
5
156
100
AcDbEntity
8
BEND_EXTENT
100
AcDbLine
10
-65.394140387554387
20
407.4928886885973
30
-3.4638958368304884e-13
11
371.48374600730762
21
407.4928886885973
31
-3.4638958368304884e-13
0
LINE
5
157
100
AcDbEntity
8
BEND_EXTENT
100
AcDbLine
10
372.7161241016006
20
91.532429600673524
30
-3.5527136788005009e-13
11
-66.62651848184737
21
91.532429600673524
31
-3.5527136788005009e-13
0
ENDSEC
0
SECTION
2
OBJECTS
0
DICTIONARY
5
C
100
AcDbDictionary
3
ACAD_GROUP
350
D
3
ACAD_MLINESTYLE
350
17
0
DICTIONARY
5
D
100
AcDbDictionary
0
DICTIONARY
5
1A
330
C
100
AcDbDictionary
0
DICTIONARY
5
17
100
AcDbDictionary
0
ENDSEC
0
EOF
