0
SECTION
2
HEADER
9
$INSUNITS
70
4
9
$ACADVER
1
AC1014
9
$HANDSEED
5
FFFF
0
ENDSEC
0
SECTION
2
TABLES
0
TABLE
2
VPORT
5
8
100
AcDbSymbolTable
0
ENDTAB
0
TABLE
2
LTYPE
5
5
100
AcDbSymbolTable
0
LTYPE
5
14
100
AcDbSymbolTableRecord
100
AcDbLinetypeTableRecord
2
BYBLOCK
70
0
0
LTYPE
5
15
100
AcDbSymbolTableRecord
100
AcDbLinetypeTableRecord
2
BYLAYER
70
0
0
ENDTAB
0
TABLE
2
LAYER
5
2
100
AcDbSymbolTable
70
2
0
LAYER
5
50
100
AcDbSymbolTableRecord
100
AcDbLayerTableRecord
2
0
70
0
6
CONTINUOUS
0
ENDTAB
0
TABLE
2
STYLE
5
3
100
AcDbSymbolTable
70
1
0
STYLE
5
11
100
AcDbSymbolTableRecord
100
AcDbTextStyleTableRecord
2
STANDARD
70
0
0
ENDTAB
0
TABLE
2
VIEW
5
6
100
AcDbSymbolTable
70
0
0
ENDTAB
0
TABLE
2
UCS
5
7
100
AcDbSymbolTable
70
0
0
ENDTAB
0
TABLE
2
APPID
5
9
100
AcDbSymbolTable
70
2
0
APPID
5
12
100
AcDbSymbolTableRecord
100
AcDbRegAppTableRecord
2
ACAD
70
0
0
ENDTAB
0
TABLE
2
DIMSTYLE
5
A
100
AcDbSymbolTable
70
1
0
ENDTAB
0
TABLE
2
BLOCK_RECORD
5
1
100
AcDbSymbolTable
70
1
0
BLOCK_RECORD
5
1F
100
AcDbSymbolTableRecord
100
AcDbBlockTableRecord
2
*MODEL_SPACE
0
BLOCK_RECORD
5
1B
100
AcDbSymbolTableRecord
100
AcDbBlockTableRecord
2
*PAPER_SPACE
0
ENDTAB
0
ENDSEC
0
SECTION
2
BLOCKS
0
BLOCK
5
20
100
AcDbEntity
100
AcDbBlockBegin
2
*MODEL_SPACE
0
ENDBLK
5
21
100
AcDbEntity
100
AcDbBlockEnd
0
BLOCK
5
1C
100
AcDbEntity
100
AcDbBlockBegin
2
*PAPER_SPACE
0
ENDBLK
5
1D
100
AcDbEntity
100
AcDbBlockEnd
0
ENDSEC
0
SECTION
2
ENTITIES
0
LWPOLYLINE
5
100
100
AcDbEntity
8
OUTER_PROFILES
100
AcDbPolyline
90
32
70
1
43
0.0
10
463.46008732244547
20
133.73372850276331
10
373.62824672226878
20
99.512074940791251
10
365.46255330315648
20
28.075037897570148
42
-0.30942252176034257
10
350.66915116334008
20
11.00155273174483
10
311.24750287756331
20
0.65501919181667945
42
-0.065268392536962622
10
306.08960561975289
20
0
10
3.3306690738754696e-15
20
-4.0939474033052647e-13
42
-0.065268392536962955
10
-5.1578972578104798
20
0.65501919181627288
10
-44.57954554358723
20
11.001552731744784
42
-0.30942252176034202
10
-59.372947683403595
20
28.075037897569999
10
-67.538641102515982
20
99.512074940791209
10
-157.37048170269267
20
133.73372850276331
42
-0.29615738731638797
10
-173.43264918444243
20
155.7189591782296
10
-173.43264918444262
20
383.44841766662222
42
-0.29615738731638808
10
-157.3704817026929
20
405.43364834208853
10
-67.538642939834759
20
439.51207494079131
10
-61.690257626437628
20
468.3102869539764
42
-0.35625923734827236
10
-42.11993058997006
20
484.32988460357183
10
51.173206141938437
20
484.46789094679048
42
0.27224049295381386
10
68.636248323912397
20
494.77209798224169
10
81.117158330411655
20
517.28953470757506
42
-0.27263776090179359
10
98.609786009680832
20
527.5937636255793
10
207.47981961007196
20
527.59376362557919
42
-0.27263776090179309
10
224.97244728934106
20
517.28953470757506
10
237.45335729584036
20
494.77209798224169
42
0.27224049295381531
10
254.91639947781437
20
484.46789094679048
10
348.20953620972273
20
484.32988460357194
42
-0.35625923734827419
10
367.77986324619036
20
468.31028695397652
10
373.62824855958752
20
439.51207494079136
10
463.46008732244564
20
405.43364834208876
42
-0.29615738731638841
10
479.52225480419543
20
383.44841766662228
10
479.5222548041952
20
155.71895917822957
42
-0.29615738731638719
0
CIRCLE
5
101
100
AcDbEntity
8
INTERIOR_PROFILES
100
AcDbCircle
10
91.562649434045682
20
412.79121093317025
30
0
40
4.0000000000000098
210
0
220
0
230
-1
0
CIRCLE
5
102
100
AcDbEntity
8
INTERIOR_PROFILES
100
AcDbCircle
10
-297.59948683713367
20
26.179551581722862
30
0
40
3.0000000000000426
210
0
220
0
230
-1
0
CIRCLE
5
103
100
AcDbEntity
8
INTERIOR_PROFILES
100
AcDbCircle
10
-397.6160291029887
20
345.12132422497706
30
0
40
3.9999999999999498
210
0
220
0
230
-1
0
CIRCLE
5
104
100
AcDbEntity
8
INTERIOR_PROFILES
100
AcDbCircle
10
-397.65225505379789
20
412.79121093317042
30
0
40
3.9999999999999898
210
0
220
0
230
-1
0
CIRCLE
5
105
100
AcDbEntity
8
INTERIOR_PROFILES
100
AcDbCircle
10
-462.73315159628351
20
369.08225653034231
30
0
40
3.9999999999999898
210
0
220
0
230
-1
0
CIRCLE
5
106
100
AcDbEntity
8
INTERIOR_PROFILES
100
AcDbCircle
10
156.64354597653136
20
369.08225653034208
30
0
40
4.0000000000000293
210
0
220
0
230
-1
0
CIRCLE
5
107
100
AcDbEntity
8
INTERIOR_PROFILES
100
AcDbCircle
10
-347.09655866085643
20
25.979849610697094
30
0
40
3.0000000000000426
210
0
220
0
230
-1
0
CIRCLE
5
108
100
AcDbEntity
8
INTERIOR_PROFILES
100
AcDbCircle
10
-322.44787373450788
20
50.828236508071285
30
0
40
25.500000000000043
210
0
220
0
230
-1
0
CIRCLE
5
109
100
AcDbEntity
8
INTERIOR_PROFILES
100
AcDbCircle
10
-192.94892773340976
20
51.3507157944073
30
0
40
6.7500000000000071
210
0
220
0
230
-1
0
CIRCLE
5
110
100
AcDbEntity
8
INTERIOR_PROFILES
100
AcDbCircle
10
-297.79918880815944
20
75.676623405445511
30
0
40
3.0000000000000426
210
0
220
0
230
-1
0
LINE
5
111
100
AcDbEntity
8
INTERIOR_PROFILES
100
AcDbLine
10
248.62429913571319
20
13.027403886704789
30
0
11
248.64964388335903
21
59.622017381136558
31
0
0
ARC
5
112
100
AcDbEntity
8
INTERIOR_PROFILES
100
AcDbCircle
10
-252.6496432916143
20
59.619841615141667
30
0
40
4.0000000000000222
210
0
220
0
230
-1
100
AcDbArc
50
0.031165553716456334
51
180.03116555371645
0
LINE
5
113
100
AcDbEntity
8
INTERIOR_PROFILES
100
AcDbLine
10
256.64964269986956
20
59.61766584914681
30
0
11
256.62429795222363
21
13.023052354714935
31
0
0
ARC
5
114
100
AcDbEntity
8
INTERIOR_PROFILES
100
AcDbCircle
10
-252.62429854396845
20
13.025228120709897
30
0
40
3.9999999999999512
210
0
220
-0
230
-1
100
AcDbArc
50
-179.96883444628355
51
0.031165553716456334
0
CIRCLE
5
115
100
AcDbEntity
8
INTERIOR_PROFILES
100
AcDbCircle
10
-187.2368033640856
20
74.661049022170715
30
0
40
3.4999999999999787
210
0
220
0
230
-1
0
CIRCLE
5
116
100
AcDbEntity
8
INTERIOR_PROFILES
100
AcDbCircle
10
156.55006273820192
20
301.2483516356719
30
0
40
3.9999999999999996
210
0
220
0
230
-1
0
CIRCLE
5
117
100
AcDbEntity
8
INTERIOR_PROFILES
100
AcDbCircle
10
-347.29626063188221
20
75.476921434419893
30
0
40
3.0000000000000426
210
0
220
0
230
-1
0
CIRCLE
5
118
100
AcDbEntity
8
INTERIOR_PROFILES
100
AcDbCircle
10
-198.66105210273395
20
28.040382566643807
30
0
40
3.5000000000000142
210
0
220
0
230
-1
0
LWPOLYLINE
5
119
100
AcDbEntity
8
INTERIOR_PROFILES
100
AcDbPolyline
90
4
70
1
43
0.0
10
268.74294028773187
20
82.699583393801362
10
268.72168933889265
20
43.631143598111173
42
0.99999999999999989
10
276.72168815540329
20
43.626792066121247
10
276.74293910424234
20
82.69523186181172
42
0.99999999999999989
0
CIRCLE
5
120
100
AcDbEntity
8
INTERIOR_PROFILES
100
AcDbCircle
10
91.526423483236499
20
345.12132422497689
30
0
40
4.0000000000000195
210
0
220
0
230
-1
0
CIRCLE
5
121
100
AcDbEntity
8
INTERIOR_PROFILES
100
AcDbCircle
10
-462.63966835795418
20
301.24835163567218
30
0
40
4.0000000000000195
210
0
220
0
230
-1
0
LWPOLYLINE
5
122
100
AcDbEntity
8
INTERIOR_PROFILES
100
AcDbPolyline
90
4
70
1
43
0.0
10
49.62798503086232
20
13.009462104385179
42
0.99999999999999989
10
57.627983847372818
20
13.01381363637482
10
57.602639099726893
20
59.608427130806554
42
0.99999999999999989
10
49.602640283216495
20
59.60407559881677
0
CIRCLE
5
123
100
AcDbEntity
8
INTERIOR_PROFILES
100
AcDbCircle
10
41.206655012129403
20
75.476921434419808
30
0
40
3.0000000000000293
210
0
220
0
230
-1
0
LINE
5
124
100
AcDbEntity
8
INTERIOR_PROFILES
100
AcDbLine
10
29.504291639544995
20
43.627104264080749
30
0
11
29.483040690705842
21
82.695544059771066
31
0
0
ARC
5
125
100
AcDbEntity
8
INTERIOR_PROFILES
100
AcDbCircle
10
-33.483040098961112
20
82.697719825765972
30
0
40
4.0000000000000222
210
-0
220
0
230
-1
100
AcDbArc
50
-0.031165553716452708
51
179.96883323887596
0
LINE
5
126
100
AcDbEntity
8
INTERIOR_PROFILES
100
AcDbLine
10
37.483039507170517
20
82.699895676054524
30
0
11
37.504290456055358
21
43.631455796070675
31
0
0
ARC
5
127
100
AcDbEntity
8
INTERIOR_PROFILES
100
AcDbCircle
10
-33.504291047800194
20
43.629280030075712
30
0
40
3.9999999999999156
210
0
220
0
230
-1
100
AcDbArc
50
179.96883444628355
51
359.96883444628349
0
CIRCLE
5
128
100
AcDbEntity
8
INTERIOR_PROFILES
100
AcDbCircle
10
-113.14067788634304
20
51.3507157944073
30
0
40
6.7500000000000071
210
0
220
0
230
-1
0
CIRCLE
5
129
100
AcDbEntity
8
INTERIOR_PROFILES
100
AcDbCircle
10
-8.4901187826191915
20
26.179551581722862
30
0
40
3.0000000000000338
210
0
220
0
230
-1
0
CIRCLE
5
130
100
AcDbEntity
8
INTERIOR_PROFILES
100
AcDbCircle
10
16.358268114755035
20
50.828236508071214
30
0
40
25.500000000000011
210
0
220
0
230
-1
0
CIRCLE
5
131
100
AcDbEntity
8
INTERIOR_PROFILES
100
AcDbCircle
10
-107.42855351701884
20
28.040382566643807
30
0
40
3.5000000000000142
210
0
220
0
230
-1
0
CIRCLE
5
132
100
AcDbEntity
8
INTERIOR_PROFILES
100
AcDbCircle
10
41.006953041103529
20
25.979849610697023
30
0
40
3.0000000000000293
210
0
220
0
230
-1
0
CIRCLE
5
133
100
AcDbEntity
8
INTERIOR_PROFILES
100
AcDbCircle
10
-118.8528022556672
20
74.661049022170715
30
0
40
3.4999999999999787
210
0
220
0
230
-1
0
CIRCLE
5
134
100
AcDbEntity
8
INTERIOR_PROFILES
100
AcDbCircle
10
-8.290416811593424
20
75.676623405445511
30
0
40
3.0000000000000338
210
0
220
0
230
-1
0
LWPOLYLINE
5
135
100
AcDbEntity
8
INTERIOR_PROFILES
100
AcDbPolyline
90
4
70
1
43
0.0
10
-144.76506488425849
20
224.73179235158517
10
-92.792021227835235
20
259.78805294406595
42
0.99999999999999989
10
-101.73910768336718
20
273.05265410494661
10
-153.71215133979041
20
237.99639351246589
42
0.99999999999999989
0
LWPOLYLINE
5
136
100
AcDbEntity
8
INTERIOR_PROFILES
100
AcDbPolyline
90
4
70
1
43
0.0
10
-101.73910768336718
20
237.05265410494658
10
-153.71215133979041
20
201.99639351246586
42
0.99999999999999989
10
-144.76506488425849
20
188.7317923515852
10
-92.792021227835235
20
223.78805294406587
42
0.99999999999999989
0
LWPOLYLINE
5
137
100
AcDbEntity
8
INTERIOR_PROFILES
100
AcDbPolyline
90
4
70
1
43
0.0
10
-101.73910768336718
20
201.05265410494655
10
-153.71215133979041
20
165.99639351246589
42
0.99999999999999989
10
-144.76506488425849
20
152.73179235158517
10
-92.792021227835235
20
187.78805294406584
42
0.99999999999999989
0
ARC
5
138
100
AcDbEntity
8
INTERIOR_PROFILES
100
AcDbCircle
10
-118.76748255455911
20
465.11491147988204
30
0
40
3.4999999999999831
210
0
220
-0
230
-1
100
AcDbArc
50
-149.62507369037283
51
33.032869712886381
0
ARC
5
139
100
AcDbEntity
8
INTERIOR_PROFILES
100
AcDbCircle
10
-118.85280225566724
20
465.25303482912653
30
0
40
3.5000000000001115
210
0
220
0
230
-1
100
AcDbArc
50
30.374926309549352
51
213.03286971296421
0
ARC
5
140
100
AcDbEntity
8
INTERIOR_PROFILES
100
AcDbCircle
10
-113.14067788634304
20
488.56336805689
30
0
40
6.7499999999999973
210
0
220
0
230
-1
100
AcDbArc
50
46.994139036748464
51
229.04188628275216
0
ARC
5
141
100
AcDbEntity
8
INTERIOR_PROFILES
100
AcDbCircle
10
-112.96135706016706
20
488.40200891050597
30
0
40
6.7499999999997673
210
0
220
-0
230
-1
100
AcDbArc
50
-133.0058609632373
51
49.041886282737885
0
ARC
5
142
100
AcDbEntity
8
INTERIOR_PROFILES
100
AcDbCircle
10
-192.94892773340968
20
488.56336805689
30
0
40
6.7499999999999822
210
-0
220
0
230
-1
100
AcDbArc
50
-49.041886282617504
51
133.00586096336608
0
ARC
5
143
100
AcDbEntity
8
INTERIOR_PROFILES
100
AcDbCircle
10
-193.12824855958567
20
488.40200891050597
30
0
40
6.7499999999997096
210
0
220
0
230
-1
100
AcDbArc
50
130.95811371737648
51
313.00586096337196
0
LINE
5
144
100
AcDbEntity
8
INTERIOR_PROFILES
100
AcDbLine
10
450.85467050401127
20
224.73179235158526
30
0
11
398.88162684758811
21
259.78805294406595
31
0
0
ARC
5
145
100
AcDbEntity
8
INTERIOR_PROFILES
100
AcDbCircle
10
-403.35517007535401
20
266.42035352450625
30
0
40
7.9999999999999503
210
-0
220
0
230
-1
100
AcDbArc
50
-56.000000000000277
51
123.99999999999947
0
LINE
5
146
100
AcDbEntity
8
INTERIOR_PROFILES
100
AcDbLine
10
407.82871330311991
20
273.05265410494661
30
0
11
459.80175695954324
21
237.99639351246586
31
0
0
ARC
5
147
100
AcDbEntity
8
INTERIOR_PROFILES
100
AcDbCircle
10
-455.32821373177728
20
231.36409293202553
30
0
40
7.9999999999999893
210
0
220
0
230
-1
100
AcDbArc
50
123.99999999999993
51
304.00000000000051
0
ARC
5
148
100
AcDbEntity
8
INTERIOR_PROFILES
100
AcDbCircle
10
-107.42855351701884
20
511.87370128465346
30
0
40
3.5000000000000093
210
0
220
0
230
-1
100
AcDbArc
50
53.265272897547661
51
238.66647339777774
0
ARC
5
149
100
AcDbEntity
8
INTERIOR_PROFILES
100
AcDbCircle
10
-107.15523156577504
20
511.6891063411299
30
0
40
3.5000000000001408
210
0
220
-0
230
-1
100
AcDbArc
50
-126.73472710245294
51
58.666473397778553
0
ARC
5
150
100
AcDbEntity
8
INTERIOR_PROFILES
100
AcDbCircle
10
-198.66105210273389
20
511.87370128465346
30
0
40
3.4999999999999973
210
-0
220
0
230
-1
100
AcDbArc
50
-58.666473397778326
51
126.73472710243466
0
ARC
5
151
100
AcDbEntity
8
INTERIOR_PROFILES
100
AcDbCircle
10
-198.93437405397771
20
511.6891063411299
30
0
40
3.5000000000000027
210
0
220
0
230
-1
100
AcDbArc
50
121.33352660220372
51
306.73472710245255
0
ARC
5
152
100
AcDbEntity
8
INTERIOR_PROFILES
100
AcDbCircle
10
-187.32212306519369
20
465.1149114798821
30
0
40
3.4999999999999813
210
0
220
0
230
-1
100
AcDbArc
50
146.96713028703607
51
329.6250736904513
0
ARC
5
153
100
AcDbEntity
8
INTERIOR_PROFILES
100
AcDbCircle
10
-187.23680336408557
20
465.25303482912659
30
0
40
3.4999999999998286
210
-0
220
0
230
-1
100
AcDbArc
50
-33.032869712885713
51
149.62507369037303
0
ARC
5
154
100
AcDbEntity
8
INTERIOR_PROFILES
100
AcDbCircle
10
-403.35517007535401
20
194.42035352450625
30
0
40
8.0000000000000195
210
-0
220
0
230
-1
100
AcDbArc
50
-56.000000000000178
51
123.99999999999982
0
LINE
5
155
100
AcDbEntity
8
INTERIOR_PROFILES
100
AcDbLine
10
407.82871330311997
20
201.05265410494661
30
0
11
459.80175695954324
21
165.99639351246589
31
0
0
ARC
5
156
100
AcDbEntity
8
INTERIOR_PROFILES
100
AcDbCircle
10
-455.32821373177728
20
159.36409293202553
30
0
40
8.0000000000000036
210
0
220
0
230
-1
100
AcDbArc
50
123.99999999999982
51
304.00000000000028
0
LINE
5
157
100
AcDbEntity
8
INTERIOR_PROFILES
100
AcDbLine
10
450.85467050401127
20
152.7317923515852
30
0
11
398.88162684758805
21
187.7880529440659
31
0
0
LWPOLYLINE
5
158
100
AcDbEntity
8
INTERIOR_PROFILES
100
AcDbPolyline
90
4
70
1
43
0.0
10
459.80175695954324
20
201.99639351246589
10
407.82871330311997
20
237.05265410494661
42
0.99999999999999989
10
398.88162684758805
20
223.7880529440659
10
450.85467050401127
20
188.73179235158517
42
0.99999999999999989
0
LWPOLYLINE
5
159
100
AcDbEntity
8
INTERIOR_PROFILES
100
AcDbPolyline
90
8
70
1
43
0.0
10
360.0423560520062
20
133.86284328197615
42
0.41421356237309159
10
357.04235605200614
20
136.86284328197615
10
338.0423560520062
20
136.86284328197615
42
0.4142135623730846
10
335.0423560520062
20
133.86284328197615
10
335.0423560520062
20
109.86284328197615
42
0.41421356237309159
10
338.04235605200626
20
106.86284328197615
10
357.0423560520062
20
106.86284328197615
42
0.4142135623730846
10
360.0423560520062
20
109.86284328197615
0
CIRCLE
5
160
100
AcDbEntity
8
INTERIOR_PROFILES
100
AcDbCircle
10
-181.04480280987642
20
424.58368842242601
30
0
40
3.0000000000000071
210
0
220
0
230
-1
0
LWPOLYLINE
5
161
100
AcDbEntity
8
INTERIOR_PROFILES
100
AcDbPolyline
90
8
70
1
43
0.0
10
218.05299297194338
20
292.78396748334097
10
218.05299297194338
20
149.51116173135674
42
0.41421356237309087
10
223.05299297194338
20
144.51116173135682
10
288.05976231806926
20
144.51116173135674
42
0.41421356237310336
10
293.05976231806926
20
149.51116173135674
10
293.05976231806926
20
292.78396748334097
42
0.41421356237309503
10
288.05976231806926
20
297.78396748334097
10
223.05299297194338
20
297.78396748334097
42
0.41421356237309087
0
CIRCLE
5
162
100
AcDbEntity
8
INTERIOR_PROFILES
100
AcDbCircle
10
-220.94892773340973
20
324.57073335532459
30
0
40
3.0000000000000071
210
0
220
0
230
-1
0
LWPOLYLINE
5
163
100
AcDbEntity
8
INTERIOR_PROFILES
100
AcDbPolyline
90
8
70
1
43
0.0
10
88.03661264780942
20
149.51116173135671
10
88.036612647809392
20
292.78396748334097
42
0.41421356237309293
10
83.036612647809349
20
297.78396748334097
10
18.029843301683499
20
297.78396748334092
42
0.41421356237309503
10
13.029843301683499
20
292.78396748334092
10
13.02984330168357
20
149.51116173135671
42
0.41421356237310336
10
18.02984330168357
20
144.51116173135671
10
83.03661264780942
20
144.51116173135676
42
0.41421356237309087
0
LWPOLYLINE
5
164
100
AcDbEntity
8
INTERIOR_PROFILES
100
AcDbPolyline
90
8
70
1
43
0.0
10
-53.952750432253396
20
133.8628432819761
10
-53.952750432253396
20
109.86284328197613
42
0.41421356237309503
10
-50.952750432253389
20
106.86284328197613
10
-31.952750432253403
20
106.86284328197613
42
0.41421356237309503
10
-28.952750432253396
20
109.86284328197613
10
-28.952750432253396
20
133.8628432819761
42
0.41421356237309503
10
-31.952750432253403
20
136.86284328197613
10
-50.952750432253382
20
136.86284328197613
42
0.41421356237309592
0
CIRCLE
5
165
100
AcDbEntity
8
INTERIOR_PROFILES
100
AcDbCircle
10
-181.04480280987642
20
114.58368842242606
30
0
40
3.0000000000000071
210
0
220
0
230
-1
0
CIRCLE
5
166
100
AcDbEntity
8
INTERIOR_PROFILES
100
AcDbCircle
10
-125.04480280987639
20
114.58368842242606
30
0
40
3.0000000000000071
210
0
220
0
230
-1
0
CIRCLE
5
167
100
AcDbEntity
8
INTERIOR_PROFILES
100
AcDbCircle
10
-85.140677886343042
20
324.57073335532459
30
0
40
2.9999999999999893
210
0
220
0
230
-1
0
CIRCLE
5
168
100
AcDbEntity
8
INTERIOR_PROFILES
100
AcDbCircle
10
-164.94892773340973
20
324.57073335532459
30
0
40
3.0000000000000071
210
0
220
0
230
-1
0
CIRCLE
5
169
100
AcDbEntity
8
INTERIOR_PROFILES
100
AcDbCircle
10
-125.04480280987639
20
424.58368842242601
30
0
40
3.0000000000000071
210
0
220
0
230
-1
0
CIRCLE
5
170
100
AcDbEntity
8
INTERIOR_PROFILES
100
AcDbCircle
10
-141.14067788634304
20
324.57073335532459
30
0
40
3.0000000000000071
210
0
220
0
230
-1
0
LINE
5
171
100
AcDbEntity
8
BEND
100
AcDbLine
10
377.61806939232781
20
101.03200738652799
30
4.5719222919508966e-13
11
377.6180693923277
21
437.99850382730813
31
4.2211472334389905e-13
0
LINE
5
172
100
AcDbEntity
8
BEND
100
AcDbLine
10
372.81798921793296
20
443.50189761085034
30
5.0186999383463229e-13
11
-66.728383598180159
21
443.50189761085028
31
5.0029888327241586e-13
0
LINE
5
173
100
AcDbEntity
8
BEND
100
AcDbLine
10
-71.528463772575037
20
437.99850382730813
30
5.0921816638972532e-13
11
-71.528463772575037
21
101.03200738652795
31
5.1329723642912156e-13
0
LINE
5
174
100
AcDbEntity
8
BEND
100
AcDbLine
10
-67.082579792181747
20
95.52225227073211
30
4.4859181935705924e-13
11
373.17218541193455
21
95.522252270732153
31
4.6274408443606116e-13
0
LINE
5
175
100
AcDbEntity
8
BEND_EXTENT
100
AcDbLine
10
381.60789206238684
20
436.48493271382506
30
4.2632564145606021e-13
11
381.6078920623869
21
102.55193983226476
31
4.2632564145606021e-13
0
LWPOLYLINE
5
176
100
AcDbEntity
8
BEND_EXTENT
100
AcDbPolyline
90
4
70
1
43
0.0
10
373.62824672226878
20
99.512074940791209
10
373.62824855958752
20
439.51207494079136
10
-67.538642939834759
20
439.51207494079131
10
-67.538641102515982
20
99.512074940791209
0
LINE
5
177
100
AcDbEntity
8
BEND_EXTENT
100
AcDbLine
10
-75.518286442634064
20
102.55193983226476
30
5.2846615972157451e-13
11
-75.518286442634064
21
436.484932713825
31
5.2846615972157451e-13
0
LINE
5
178
100
AcDbEntity
8
BEND_EXTENT
100
AcDbLine
10
-65.918124256525601
20
447.49172028090936
30
5.0182080713057076e-13
11
372.0077298762784
21
447.49172028090948
31
5.0626169922907148e-13
0
LINE
5
179
100
AcDbEntity
8
BEND_EXTENT
100
AcDbLine
10
372.71612410160031
20
91.53242960067314
30
4.2632564145606021e-13
11
-66.626518481847512
21
91.532429600673055
31
4.2632564145606011e-13
0
ENDSEC
0
SECTION
2
OBJECTS
0
DICTIONARY
5
C
100
AcDbDictionary
3
ACAD_GROUP
350
D
3
ACAD_MLINESTYLE
350
17
0
DICTIONARY
5
D
100
AcDbDictionary
0
DICTIONARY
5
1A
330
C
100
AcDbDictionary
0
DICTIONARY
5
17
100
AcDbDictionary
0
ENDSEC
0
EOF
