  0
SECTION
  2
HEADER
  9
$ACADVER
  1
AC1014
  9
$ACADMAINTVER
 70
     9
  9
$DWGCODEPAGE
  3
ANSI_1252
  9
$INSBASE
 10
0.0
 20
0.0
 30
0.0
  9
$EXTMIN
 10
1.00000000000000E+20
 20
1.00000000000000E+20
 30
1.00000000000000E+20
  9
$EXTMAX
 10
-1.00000000000000E+20
 20
-1.00000000000000E+20
 30
-1.00000000000000E+20
  9
$LIMMIN
 10
0.0
 20
0.0
  9
$LIMMAX
 10
12.0
 20
9.0
  9
$ORTHOMODE
 70
     0
  9
$REGENMODE
 70
     1
  9
$FILLMODE
 70
     1
  9
$QTEXTMODE
 70
     0
  9
$MIRRTEXT
 70
     1
  9
$DRAGMODE
 70
     2
  9
$LTSCALE
 40
1.0
  9
$OSMODE
 70
  4133
  9
$ATTMODE
 70
     1
  9
$TEXTSIZE
 40
0.2
  9
$TRACEWID
 40
0.05
  9
$TEXTSTYLE
  7
STANDARD
  9
$CLAYER
  8
0
  9
$CELTYPE
  6
BYBLOCK
  9
$CECOLOR
 62
   256
  9
$CELTSCALE
 40
1.0
  9
$DELOBJ
 70
     1
  9
$DISPSILH
 70
     0
  9
$DIMSCALE
 40
1.0
  9
$DIMASZ
 40
0.18
  9
$DIMEXO
 40
0.0625
  9
$DIMDLI
 40
0.38
  9
$DIMRND
 40
0.0
  9
$DIMDLE
 40
0.0
  9
$DIMEXE
 40
0.18
  9
$DIMTP
 40
0.0
  9
$DIMTM
 40
0.0
  9
$DIMTXT
 40
0.18
  9
$DIMCEN
 40
0.09
  9
$DIMTSZ
 40
0.0
  9
$DIMTOL
 70
     0
  9
$DIMLIM
 70
     0
  9
$DIMTIH
 70
     1
  9
$DIMTOH
 70
     1
  9
$DIMSE1
 70
     0
  9
$DIMSE2
 70
     0
  9
$DIMTAD
 70
     0
  9
$DIMZIN
 70
     0
  9
$DIMBLK
  1

  9
$DIMASO
 70
     1
  9
$DIMSHO
 70
     1
  9
$DIMPOST
  1

  9
$DIMAPOST
  1

  9
$DIMALT
 70
     0
  9
$DIMALTD
 70
     2
  9
$DIMALTF
 40
25.4
  9
$DIMLFAC
 40
1.0
  9
$DIMTOFL
 70
     0
  9
$DIMTVP
 40
0.0
  9
$DIMTIX
 70
     0
  9
$DIMSOXD
 70
     0
  9
$DIMSAH
 70
     0
  9
$DIMBLK1
  1

  9
$DIMBLK2
  1

  9
$DIMSTYLE
  2
STANDARD
  9
$DIMCLRD
 70
     0
  9
$DIMCLRE
 70
     0
  9
$DIMCLRT
 70
     0
  9
$DIMTFAC
 40
1.0
  9
$DIMGAP
 40
0.09
  9
$DIMJUST
 70
     0
  9
$DIMSD1
 70
     0
  9
$DIMSD2
 70
     0
  9
$DIMTOLJ
 70
     1
  9
$DIMTZIN
 70
     0
  9
$DIMALTZ
 70
     0
  9
$DIMALTTZ
 70
     0
  9
$DIMFIT
 70
     5
  9
$DIMUPT
 70
     0
  9
$DIMUNIT
 70
     2
  9
$DIMDEC
 70
     4
  9
$DIMTDEC
 70
     4
  9
$DIMALTU
 70
     2
  9
$DIMALTTD
 70
     2
  9
$DIMTXSTY
  7
STANDARD
  9
$DIMAUNIT
 70
     0
  9
$LUNITS
 70
     2
  9
$LUPREC
 70
     4
  9
$SKETCHINC
 40
0.1
  9
$FILLETRAD
 40
0.5
  9
$AUNITS
 70
     0
  9
$AUPREC
 70
     0
  9
$MENU
  1
.
  9
$ELEVATION
 40
0.0
  9
$PELEVATION
 40
0.0
  9
$THICKNESS
 40
0.0
  9
$LIMCHECK
 70
     0
  9
$CHAMFERA
 40
0.0
  9
$CHAMFERB
 40
0.0
  9
$CHAMFERC
 40
0.0
  9
$CHAMFERD
 40
0.0
  9
$SKPOLY
 70
     0
  9
$TDCREATE
 40
2447893.5
  9
$TDUPDATE
 40
2458969.902194039
  9
$TDINDWG
 40
0.0
  9
$TDUSRTIMER
 40
0.0
  9
$USRTIMER
 70
     1
  9
$ANGBASE
 50
0.0
  9
$ANGDIR
 70
     0
  9
$PDMODE
 70
     0
  9
$PDSIZE
 40
0.0
  9
$PLINEWID
 40
0.0
  9
$COORDS
 70
     2
  9
$SPLFRAME
 70
     0
  9
$SPLINETYPE
 70
     6
  9
$SPLINESEGS
 70
     8
  9
$ATTDIA
 70
     0
  9
$ATTREQ
 70
     1
  9
$HANDLING
 70
     1
  9
$HANDSEED
  5
10082
  9
$SURFTAB1
 70
     6
  9
$SURFTAB2
 70
     6
  9
$SURFTYPE
 70
     6
  9
$SURFU
 70
     6
  9
$SURFV
 70
     6
  9
$UCSNAME
  2

  9
$UCSORG
 10
0.0
 20
0.0
 30
0.0
  9
$UCSXDIR
 10
1.0
 20
0.0
 30
0.0
  9
$UCSYDIR
 10
0.0
 20
1.0
 30
0.0
  9
$PUCSNAME
  2

  9
$PUCSORG
 10
0.0
 20
0.0
 30
0.0
  9
$PUCSXDIR
 10
1.0
 20
0.0
 30
0.0
  9
$PUCSYDIR
 10
0.0
 20
1.0
 30
0.0
  9
$USERI1
 70
     0
  9
$USERI2
 70
     0
  9
$USERI3
 70
     0
  9
$USERI4
 70
     0
  9
$USERI5
 70
     0
  9
$USERR1
 40
0.0
  9
$USERR2
 40
0.0
  9
$USERR3
 40
0.0
  9
$USERR4
 40
0.0
  9
$USERR5
 40
0.0
  9
$WORLDVIEW
 70
     1
  9
$SHADEDGE
 70
     3
  9
$SHADEDIF
 70
    70
  9
$TILEMODE
 70
     1
  9
$MAXACTVP
 70
    64
  9
$PINSBASE
 10
0.0
 20
0.0
 30
0.0
  9
$PLIMCHECK
 70
     0
  9
$PEXTMIN
 10
1.00000000000000E+20
 20
1.00000000000000E+20
 30
1.00000000000000E+20
  9
$PEXTMAX
 10
-1.00000000000000E+20
 20
-1.00000000000000E+20
 30
-1.00000000000000E+20
  9
$PLIMMIN
 10
0.0
 20
0.0
  9
$PLIMMAX
 10
12.0
 20
9.0
  9
$UNITMODE
 70
     0
  9
$VISRETAIN
 70
     1
  9
$PLINEGEN
 70
     0
  9
$PSLTSCALE
 70
     1
  9
$TREEDEPTH
 70
  3020
  9
$PICKSTYLE
 70
     1
  9
$CMLSTYLE
  2
STANDARD
  9
$CMLJUST
 70
     0
  9
$CMLSCALE
 40
1.0
  9
$PROXYGRAPHICS
 70
     1
  9
$MEASUREMENT
 70
     0
  0
ENDSEC
  0
SECTION
  2
CLASSES
  0
CLASS
  1
ACDBDICTIONARYWDFLT
  2
AcDbDictionaryWithDefault
  3
ObjectDBX Classes
 90
        0
280
     0
281
     0
  0
CLASS
  1
SCALE
  2
AcDbScale
  3
ObjectDBX Classes
 90
     1153
280
     0
281
     0
  0
CLASS
  1
MATERIAL
  2
AcDbMaterial
  3
ObjectDBX Classes
 90
     1153
280
     0
281
     0
  0
CLASS
  1
VISUALSTYLE
  2
AcDbVisualStyle
  3
ObjectDBX Classes
 90
     4095
280
     0
281
     0
  0
CLASS
  1
TABLESTYLE
  2
AcDbTableStyle
  3
ObjectDBX Classes
 90
     4095
280
     0
281
     0
  0
CLASS
  1
MLEADERSTYLE
  2
AcDbMLeaderStyle
  3
ACDB_MLEADERSTYLE_CLASS
 90
     4095
280
     0
281
     0
  0
CLASS
  1
SUN
  2
AcDbSun
  3
SCENEOE
 90
     1153
280
     0
281
     0
  0
CLASS
  1
DICTIONARYVAR
  2
AcDbDictionaryVar
  3
ObjectDBX Classes
 90
        0
280
     0
281
     0
  0
CLASS
  1
XRECORD
  2
AcDbXrecord
  3
ObjectDBX Classes
 90
        0
280
     0
281
     0
  0
CLASS
  1
LWPOLYLINE
  2
AcDbPolyline
  3
ObjectDBX Classes
 90
        0
280
     0
281
     1
  0
CLASS
  1
HATCH
  2
AcDbHatch
  3
ObjectDBX Classes
 90
        0
280
     0
281
     1
  0
CLASS
  1
ACDBPLACEHOLDER
  2
AcDbPlaceHolder
  3
ObjectDBX Classes
 90
        0
280
     0
281
     0
  0
CLASS
  1
LAYOUT
  2
AcDbLayout
  3
ObjectDBX Classes
 90
        0
280
     0
281
     0
  0
ENDSEC
  0
SECTION
  2
TABLES
  0
TABLE
  2
VPORT
  5
8
102
{ACAD_XDICTIONARY
360
10078
102
}
330
0
100
AcDbSymbolTable
 70
     1
  0
VPORT
  5
10001
330
8
100
AcDbSymbolTableRecord
100
AcDbViewportTableRecord
  2
*ACTIVE
 70
     0
 10
0.0
 20
0.0
 11
1.0
 21
1.0
 12
1122.430511245
 22
193.0956383539865
 13
0.0
 23
0.0
 14
0.5
 24
0.5
 15
0.5
 25
0.5
 16
0.0
 26
0.0
 36
1.0
 17
0.0
 27
0.0
 37
0.0
 40
474.4530021967072
 41
2.63275862068966
 42
50.0
 43
0.0
 44
0.0
 50
0.0
 51
0.0
 71
    16
 72
   100
 73
     1
 74
     3
 75
     0
 76
     0
 77
     0
 78
     0
  0
ENDTAB
  0
TABLE
  2
LTYPE
  5
5
330
0
100
AcDbSymbolTable
 70
     2
  0
LTYPE
  5
14
330
5
100
AcDbSymbolTableRecord
100
AcDbLinetypeTableRecord
  2
BYBLOCK
 70
     0
  3

 72
    65
 73
     0
 40
0.0
  0
LTYPE
  5
15
330
5
100
AcDbSymbolTableRecord
100
AcDbLinetypeTableRecord
  2
BYLAYER
 70
     0
  3

 72
    65
 73
     0
 40
0.0
  0
LTYPE
  5
FFFF
330
5
100
AcDbSymbolTableRecord
100
AcDbLinetypeTableRecord
  2
CONTINUOUS
 70
     0
  3
Solid line
 72
    65
 73
     0
 40
0.0
  0
LTYPE
  5
1004D
330
5
100
AcDbSymbolTableRecord
100
AcDbLinetypeTableRecord
  2
DASHED2
 70
     0
  3
_ _ _ _ _ _ _ _ _ _ _ _ _ _ _ _ _ _ _ _ _ _ _ _
 72
    65
 73
     2
 40
0.375
 49
0.25
 74
     0
 49
-0.125
 74
     0
  0
ENDTAB
  0
TABLE
  2
LAYER
  5
2
330
0
100
AcDbSymbolTable
 70
     1
  0
LAYER
  5
50
330
2
100
AcDbSymbolTableRecord
100
AcDbLayerTableRecord
  2
0
 70
     0
 62
     7
  6
CONTINUOUS
  0
ENDTAB
  0
TABLE
  2
STYLE
  5
3
330
0
100
AcDbSymbolTable
 70
     1
  0
STYLE
  5
11
330
3
100
AcDbSymbolTableRecord
100
AcDbTextStyleTableRecord
  2
STANDARD
 70
     0
 40
0.2
 41
1.0
 50
0.0
 71
     0
 42
0.2
  3

  4

  0
ENDTAB
  0
TABLE
  2
VIEW
  5
6
330
0
100
AcDbSymbolTable
 70
     0
  0
ENDTAB
  0
TABLE
  2
UCS
  5
7
330
0
100
AcDbSymbolTable
 70
     0
  0
ENDTAB
  0
TABLE
  2
APPID
  5
9
330
0
100
AcDbSymbolTable
 70
     2
  0
APPID
  5
12
330
9
100
AcDbSymbolTableRecord
100
AcDbRegAppTableRecord
  2
ACAD
 70
     0
  0
APPID
  5
10081
330
9
100
AcDbSymbolTableRecord
100
AcDbRegAppTableRecord
  2
ACAD_MLEADERVER
 70
     0
  0
ENDTAB
  0
TABLE
  2
DIMSTYLE
  5
A
330
0
100
AcDbSymbolTable
 70
     1
  0
DIMSTYLE
105
10000
330
A
100
AcDbSymbolTableRecord
100
AcDbDimStyleTableRecord
  2
STANDARD
 70
     0
  3

  4

  5

  6

  7

 40
1.0
 41
0.18
 42
0.0625
 43
0.38
 44
0.18
 45
0.0
 46
0.0
 47
0.0
 48
0.0
140
0.18
141
0.09
142
0.0
143
25.4
144
1.0
145
0.0
146
1.0
147
0.09
 71
     0
 72
     0
 73
     1
 74
     1
 75
     0
 76
     0
 77
     0
 78
     0
170
     0
171
     2
172
     0
173
     0
174
     0
175
     0
176
     0
177
     0
178
     0
270
     2
271
     4
272
     4
273
     2
274
     2
340
11
275
     0
280
     0
281
     0
282
     0
283
     1
284
     0
285
     0
286
     0
287
     3
288
     0
  0
ENDTAB
  0
TABLE
  2
BLOCK_RECORD
  5
1
330
0
100
AcDbSymbolTable
 70
     0
  0
BLOCK_RECORD
  5
1F
330
1
100
AcDbSymbolTableRecord
100
AcDbBlockTableRecord
  2
*MODEL_SPACE
  0
BLOCK_RECORD
  5
1B
330
1
100
AcDbSymbolTableRecord
100
AcDbBlockTableRecord
  2
*PAPER_SPACE
  0
ENDTAB
  0
ENDSEC
  0
SECTION
  2
BLOCKS
  0
BLOCK
  5
20
330
1F
100
AcDbEntity
  8
0
100
AcDbBlockBegin
  2
*MODEL_SPACE
 70
     0
 10
0.0
 20
0.0
 30
0.0
  3
*MODEL_SPACE
  1

  0
ENDBLK
  5
21
330
1F
100
AcDbEntity
  8
0
100
AcDbBlockEnd
  0
BLOCK
  5
1C
330
1B
100
AcDbEntity
 67
     1
  8
0
100
AcDbBlockBegin
  2
*PAPER_SPACE
 70
     0
 10
0.0
 20
0.0
 30
0.0
  3
*PAPER_SPACE
  1

  0
ENDBLK
  5
1D
330
1B
100
AcDbEntity
 67
     1
  8
0
100
AcDbBlockEnd
  0
ENDSEC
  0
SECTION
  2
ENTITIES
  0
LINE
  5
101
330
1F
100
AcDbEntity
  8
0
100
AcDbLine
 10
1085.391980617777
 20
374.9999999999999
 30
-0.00000000000001
 11
1135.391980617777
 21
359.9999999999999
 31
-0.00000000000001
  0
ARC
  5
102
330
1F
100
AcDbEntity
  8
0
100
AcDbCircle
 10
1180.391980617778
 20
116.2250580681223
 30
0.0
 40
29.99999999999872
100
AcDbArc
 50
-56.20100951295523
 51
0.0
  0
LINE
  5
103
330
1F
100
AcDbEntity
  8
0
100
AcDbLine
 10
1085.391980617777
 20
-25.0
 30
0.00000000000001
 11
1085.391980617777
 21
15.0
 31
0.0
  0
LINE
  5
104
330
1F
100
AcDbEntity
  8
0
100
AcDbLine
 10
1085.391980617777
 20
-25.0
 30
0.00000000000001
 11
940.3919806177771
 21
-25.0
 31
0.00000000000001
  0
LINE
  5
105
330
1F
100
AcDbEntity
  8
0
100
AcDbLine
 10
1135.391980617777
 20
359.9999999999999
 30
-0.00000000000001
 11
1135.391980617777
 21
49.99999999999989
 31
0.00000000000003
  0
LINE
  5
106
330
1F
100
AcDbEntity
  8
0
100
AcDbLine
 10
1135.391980617777
 20
49.99999999999989
 30
0.00000000000003
 11
1197.080409838636
 21
91.29522994716724
 31
0.0
  0
LINE
  5
107
330
1F
100
AcDbEntity
  8
0
100
AcDbLine
 10
1135.391980617777
 20
49.99999999999989
 30
0.00000000000003
 11
1135.391980617777
 21
359.9999999999999
 31
-0.00000000000001
  0
LINE
  5
108
330
1F
100
AcDbEntity
  8
0
100
AcDbLine
 10
945.3919806177771
 20
374.9999999999999
 30
-0.00000000000001
 11
1085.391980617777
 21
374.9999999999999
 31
-0.00000000000001
  0
LINE
  5
109
330
1F
100
AcDbEntity
  8
0
100
AcDbLine
 10
1085.391980617777
 20
374.9999999999999
 30
-0.00000000000001
 11
1085.391980617777
 21
-25.0
 31
0.00000000000001
  0
LINE
  5
110
330
1F
100
AcDbEntity
  8
0
100
AcDbLine
 10
1135.391980617777
 20
359.9999999999999
 30
-0.00000000000001
 11
1189.012417184768
 21
343.9138690299027
 31
0.00000000000001
  0
ARC
  5
111
330
1F
100
AcDbEntity
  8
0
100
AcDbCircle
 10
1180.391980617778
 20
315.1790804732692
 30
-0.00000000000004
 40
29.99999999999901
100
AcDbArc
 50
0.0
 51
73.30075576600674
  0
LINE
  5
112
330
1F
100
AcDbEntity
  8
0
100
AcDbLine
 10
1210.391980617777
 20
315.1790804732692
 30
-0.00000000000004
 11
1210.391980617777
 21
116.2250580681223
 31
0.0
  0
LINE
  5
113
330
1F
100
AcDbEntity
  8
0
100
AcDbLine
 10
1085.391980617777
 20
-25.0
 30
0.00000000000001
 11
1135.391980617777
 21
49.99999999999989
 31
0.00000000000003
  0
LINE
  5
114
330
1F
100
AcDbEntity
  8
0
100
AcDbLine
 10
1085.391980617777
 20
-25.0
 30
0.00000000000001
 11
1085.391980617777
 21
374.9999999999999
 31
-0.00000000000001
  0
LINE
  5
115
330
1F
100
AcDbEntity
  8
0
100
AcDbLine
 10
642.391980617777
 20
315.1790804732692
 30
-0.00000000000004
 11
642.391980617777
 21
116.2250580681223
 31
0.0
  0
LINE
  5
116
330
1F
100
AcDbEntity
  8
0
100
AcDbLine
 10
717.391980617777
 20
49.99999999999993
 30
0.00000000000003
 11
717.391980617777
 21
359.9999999999999
 31
-0.00000000000001
  0
LINE
  5
117
330
1F
100
AcDbEntity
  8
0
100
AcDbLine
 10
767.391980617777
 20
-25.0
 30
0.00000000000001
 11
767.391980617777
 21
374.9999999999999
 31
-0.00000000000001
  0
ARC
  5
118
330
1F
100
AcDbEntity
  8
0
100
AcDbCircle
 10
672.3919806177757
 20
116.2250580681223
 30
0.0
 40
29.99999999999872
100
AcDbArc
 50
180.0
 51
236.2010095129551
  0
LINE
  5
119
330
1F
100
AcDbEntity
  8
0
100
AcDbLine
 10
717.391980617777
 20
359.9999999999999
 30
-0.00000000000001
 11
717.391980617777
 21
49.99999999999993
 31
0.00000000000003
  0
LINE
  5
120
330
1F
100
AcDbEntity
  8
0
100
AcDbLine
 10
767.391980617777
 20
374.9999999999999
 30
-0.00000000000001
 11
767.391980617777
 21
-25.0
 31
0.00000000000001
  0
LINE
  5
121
330
1F
100
AcDbEntity
  8
0
100
AcDbLine
 10
717.391980617777
 20
359.9999999999999
 30
-0.00000000000001
 11
663.7715440507861
 21
343.9138690299027
 31
0.00000000000001
  0
LINE
  5
122
330
1F
100
AcDbEntity
  8
0
100
AcDbLine
 10
767.391980617777
 20
-25.0
 30
0.00000000000001
 11
912.391980617777
 21
-25.0
 31
0.00000000000001
  0
ARC
  5
123
330
1F
100
AcDbEntity
  8
0
100
AcDbCircle
 10
672.391980617776
 20
315.1790804732692
 30
-0.00000000000004
 40
29.99999999999883
100
AcDbArc
 50
106.6992442339933
 51
180.0
  0
LINE
  5
124
330
1F
100
AcDbEntity
  8
0
100
AcDbLine
 10
717.391980617777
 20
49.99999999999993
 30
0.00000000000003
 11
655.7035513969184
 21
91.29522994716723
 31
0.0
  0
LINE
  5
125
330
1F
100
AcDbEntity
  8
0
100
AcDbLine
 10
767.391980617777
 20
-25.0
 30
0.00000000000001
 11
717.391980617777
 21
49.99999999999993
 31
0.00000000000003
  0
LINE
  5
126
330
1F
100
AcDbEntity
  8
0
100
AcDbLine
 10
767.391980617777
 20
374.9999999999999
 30
-0.00000000000001
 11
717.391980617777
 21
359.9999999999999
 31
-0.00000000000001
  0
LINE
  5
127
330
1F
100
AcDbEntity
  8
0
100
AcDbLine
 10
907.391980617777
 20
374.9999999999999
 30
-0.00000000000001
 11
767.391980617777
 21
374.9999999999999
 31
-0.00000000000001
  0
LINE
  5
128
330
1F
100
AcDbEntity
  8
0
100
AcDbLine
 10
767.391980617777
 20
-25.0
 30
0.00000000000001
 11
767.391980617777
 21
15.0
 31
0.0
  0
LINE
  5
129
330
1F
100
AcDbEntity
  8
0
100
AcDbLine
 10
945.3919806177771
 20
374.9999999999999
 30
-0.00000000000001
 11
953.3919806177771
 21
374.9999999999999
 31
-0.00000000000001
  0
LINE
  5
130
330
1F
100
AcDbEntity
  8
0
100
AcDbLine
 10
953.3919806177771
 20
374.9999999999999
 30
-0.00000000000001
 11
947.3919806177771
 21
374.9999999999999
 31
-0.00000000000001
  0
LINE
  5
131
330
1F
100
AcDbEntity
  8
0
100
AcDbLine
 10
917.391980617777
 20
364.9999999999999
 30
-0.00000000000001
 11
917.391980617777
 21
254.9999999999999
 31
-0.00000000000001
  0
LINE
  5
132
330
1F
100
AcDbEntity
  8
0
100
AcDbLine
 10
953.3919806177771
 20
249.9999999999999
 30
-0.00000000000001
 11
953.3919806177771
 21
191.9179976008346
 31
-0.00000000000001
  0
LINE
  5
133
330
1F
100
AcDbEntity
  8
0
100
AcDbLine
 10
899.3919806177771
 20
188.0000000447034
 30
0.0
 11
899.391980617777
 21
127.0000018179417
 31
-0.00000000000002
  0
LINE
  5
134
330
1F
100
AcDbEntity
  8
0
100
AcDbLine
 10
899.391980617777
 20
57.99999999999993
 30
-0.00000000000001
 11
899.391980617777
 21
-5.00000000000007
 31
-0.00000000000001
  0
LINE
  5
135
330
1F
100
AcDbEntity
  8
0
100
AcDbLine
 10
910.391980617777
 20
-5.00000000000007
 30
-0.00000000000001
 11
930.3919806326783
 21
-5.00000005960476
 31
0.00000000000001
  0
LINE
  5
136
330
1F
100
AcDbEntity
  8
0
100
AcDbLine
 10
904.391980617777
 20
62.99999999999993
 30
-0.00000000000001
 11
942.3919806177771
 21
62.99999999999993
 31
-0.00000000000001
  0
LINE
  5
137
330
1F
100
AcDbEntity
  8
0
100
AcDbLine
 10
948.3919806177771
 20
56.99999999999988
 30
-0.00000000000001
 11
910.391980617777
 21
56.99999999999992
 31
-0.00000000000001
  0
LINE
  5
138
330
1F
100
AcDbEntity
  8
0
100
AcDbLine
 10
905.391980617777
 20
51.99999999999992
 30
-0.00000000000001
 11
905.391980617777
 21
-0.00000000000007
 31
-0.00000000000001
  0
LINE
  5
139
330
1F
100
AcDbEntity
  8
0
100
AcDbLine
 10
917.391980617777
 20
-20.0
 30
0.00000000000001
 11
917.391980617777
 21
-15.00000000000002
 31
0.00000000000001
  0
LINE
  5
140
330
1F
100
AcDbEntity
  8
0
100
AcDbLine
 10
935.3919806177771
 20
-20.0
 30
0.00000000000001
 11
935.3919806177771
 21
-10.0
 31
0.00000000000001
  0
LINE
  5
141
330
1F
100
AcDbEntity
  8
0
100
AcDbLine
 10
904.391980617777
 20
-10.00000000000005
 30
0.00000000000001
 11
912.391980617777
 21
-9.99999999999996
 31
0.00000000000001
  0
ARC
  5
142
330
1F
100
AcDbEntity
  8
0
100
AcDbCircle
 10
910.391980617777
 20
51.99999999999996
 30
-0.00000000000001
 40
4.999999999999956
100
AcDbArc
 50
90.0
 51
180.0
  0
ARC
  5
143
330
1F
100
AcDbEntity
  8
0
100
AcDbCircle
 10
910.391980617777
 20
-0.00000000000012
 30
-0.00000000000001
 40
5.0
100
AcDbArc
 50
180.0
 51
270.0
  0
ARC
  5
144
330
1F
100
AcDbEntity
  8
0
100
AcDbCircle
 10
904.391980617777
 20
-5.00000000000005
 30
0.00000000000001
 40
5.0
100
AcDbArc
 50
180.0
 51
270.0
  0
LINE
  5
145
330
1F
100
AcDbEntity
  8
0
100
AcDbLine
 10
899.391980617777
 20
127.0000018179417
 30
-0.00000000000002
 11
899.391980617777
 21
128.0000019073486
 31
0.0
  0
LINE
  5
146
330
1F
100
AcDbEntity
  8
0
100
AcDbLine
 10
910.391980617777
 20
128.0000019073486
 30
0.0
 11
948.3919806177771
 21
128.0000019073486
 31
0.0
  0
LINE
  5
147
330
1F
100
AcDbEntity
  8
0
100
AcDbLine
 10
953.3919806177771
 20
123.0000019073486
 30
0.0
 11
953.3919806177771
 21
122.0000018179417
 31
-0.00000000000001
  0
LINE
  5
148
330
1F
100
AcDbEntity
  8
0
100
AcDbLine
 10
942.3919806177771
 20
122.0000018179417
 30
-0.00000000000001
 11
904.391980617777
 21
122.0000018179417
 31
0.0
  0
LINE
  5
149
330
1F
100
AcDbEntity
  8
0
100
AcDbLine
 10
947.3919806177771
 20
117.0000018179417
 30
-0.00000000000001
 11
947.3919806177771
 21
67.99999999999991
 31
-0.00000000000001
  0
ARC
  5
150
330
1F
100
AcDbEntity
  8
0
100
AcDbCircle
 10
942.3919806177771
 20
67.99999999999987
 30
-0.00000000000001
 40
4.999999999999947
100
AcDbArc
 50
-90.0
 51
0.0
  0
ARC
  5
151
330
1F
100
AcDbEntity
  8
0
100
AcDbCircle
 10
948.3919806177771
 20
61.99999999999988
 30
-0.00000000000001
 40
5.0
100
AcDbArc
 50
-90.0
 51
0.0
  0
LINE
  5
152
330
1F
100
AcDbEntity
  8
0
100
AcDbLine
 10
899.3919806177771
 20
188.0000000447034
 30
0.0
 11
899.391980617777
 21
127.0000018179417
 31
-0.00000000000002
  0
ARC
  5
153
330
1F
100
AcDbEntity
  8
0
100
AcDbCircle
 10
904.391980617777
 20
57.99999999999998
 30
-0.00000000000001
 40
4.999999999999947
100
AcDbArc
 50
90.0
 51
180.0
  0
LINE
  5
154
330
1F
100
AcDbEntity
  8
0
100
AcDbLine
 10
953.3927764094174
 20
193.0000000447034
 30
-0.00000000000001
 11
953.3926436128677
 21
191.9987589525898
 31
-0.00000000000001
  0
LINE
  5
155
330
1F
100
AcDbEntity
  8
0
100
AcDbLine
 10
948.3932217521083
 20
186.9994221457096
 30
-0.00000000000001
 11
910.3914025225145
 21
186.9950284113477
 31
0.0
  0
LINE
  5
156
330
1F
100
AcDbEntity
  8
0
100
AcDbLine
 10
905.3919806177771
 20
181.9950284447671
 30
0.0
 11
905.391980617777
 21
133.0000019073487
 31
0.0
  0
LINE
  5
157
330
1F
100
AcDbEntity
  8
0
100
AcDbLine
 10
904.391980617777
 20
193.0000000447034
 30
-0.00000000000001
 11
942.3919806177771
 21
193.0000000447034
 31
-0.00000000000001
  0
LINE
  5
158
330
1F
100
AcDbEntity
  8
0
100
AcDbLine
 10
953.3919806177771
 20
193.0000000447034
 30
-0.00000000000001
 11
953.3927764094174
 21
193.0000000447034
 31
-0.00000000000001
  0
LINE
  5
159
330
1F
100
AcDbEntity
  8
0
100
AcDbLine
 10
922.391980617777
 20
251.9999999999999
 30
-0.00000000000001
 11
942.3919806177771
 21
251.9999999999999
 31
-0.00000000000001
  0
LINE
  5
160
330
1F
100
AcDbEntity
  8
0
100
AcDbLine
 10
953.3919806177771
 20
251.9999999999999
 30
-0.00000000000001
 11
953.3956679580863
 21
251.9999999999999
 31
-0.00000000000001
  0
LINE
  5
161
330
1F
100
AcDbEntity
  8
0
100
AcDbLine
 10
947.3919806177771
 20
246.9999999999999
 30
-0.00000000000001
 11
947.391980617777
 21
198.0000000447034
 31
-0.00000000000001
  0
LINE
  5
162
330
1F
100
AcDbEntity
  8
0
100
AcDbLine
 10
935.3919806177771
 20
259.9999999999999
 30
-0.00000000000001
 11
935.3919806177771
 21
364.9999999999999
 31
-0.00000000000001
  0
LINE
  5
163
330
1F
100
AcDbEntity
  8
0
100
AcDbLine
 10
917.391980617777
 20
256.9999999999999
 30
-0.00000000000001
 11
917.391980617777
 21
364.9999999999999
 31
-0.00000000000001
  0
ARC
  5
164
330
1F
100
AcDbEntity
  8
0
100
AcDbCircle
 10
910.3919806177771
 20
181.9950284447671
 30
0.0
 40
5.000000000000101
100
AcDbArc
 50
90.00662448375608
 51
180.0
  0
ARC
  5
165
330
1F
100
AcDbEntity
  8
0
100
AcDbCircle
 10
910.391980617777
 20
133.0000019073486
 30
0.0
 40
5.0
100
AcDbArc
 50
180.0
 51
270.0
  0
LINE
  5
166
330
1F
100
AcDbEntity
  8
0
100
AcDbLine
 10
953.3919806177771
 20
249.9999999999999
 30
-0.00000000000001
 11
953.3919806177771
 21
191.9179976008346
 31
-0.00000000000001
  0
LINE
  5
167
330
1F
100
AcDbEntity
  8
0
100
AcDbLine
 10
953.3919806177771
 20
123.0000019073486
 30
0.0
 11
953.3919806177771
 21
61.99999999999992
 31
-0.00000000000001
  0
ARC
  5
168
330
1F
100
AcDbEntity
  8
0
100
AcDbCircle
 10
948.3919806177771
 20
123.0000019073487
 30
0.0
 40
5.0
100
AcDbArc
 50
0.0
 51
90.0
  0
ARC
  5
169
330
1F
100
AcDbEntity
  8
0
100
AcDbCircle
 10
942.3919806177771
 20
117.0000018179417
 30
-0.00000000000001
 40
5.0
100
AcDbArc
 50
0.0
 51
90.0
  0
ARC
  5
170
330
1F
100
AcDbEntity
  8
0
100
AcDbCircle
 10
904.391980617777
 20
127.0000018179417
 30
-0.00000000000002
 40
5.0
100
AcDbArc
 50
180.0
 51
270.0
  0
ARC
  5
171
330
1F
100
AcDbEntity
  8
0
100
AcDbCircle
 10
942.3919806177771
 20
198.0000000447033
 30
-0.00000000000001
 40
4.999999999999929
100
AcDbArc
 50
-90.0
 51
0.0
  0
ARC
  5
172
330
1F
100
AcDbEntity
  8
0
100
AcDbCircle
 10
904.391980617777
 20
188.0000000447035
 30
0.0
 40
4.999999999999929
100
AcDbArc
 50
90.0
 51
180.0
  0
ARC
  5
173
330
1F
100
AcDbEntity
  8
0
100
AcDbCircle
 10
948.3926436568458
 20
191.9994221122901
 30
-0.00000000000001
 40
4.999999999999888
100
AcDbArc
 50
270.0066244837535
 51
359.9924007495877
  0
LINE
  5
174
330
1F
100
AcDbEntity
  8
0
100
AcDbLine
 10
940.3919806177771
 20
254.9999999999999
 30
-0.00000000000001
 11
948.3919806177771
 21
254.9999999999999
 31
-0.00000000000001
  0
LINE
  5
175
330
1F
100
AcDbEntity
  8
0
100
AcDbLine
 10
940.3919806177771
 20
254.9999999999999
 30
-0.00000000000001
 11
948.3919806177771
 21
254.9999999999999
 31
-0.00000000000001
  0
ARC
  5
176
330
1F
100
AcDbEntity
  8
0
100
AcDbCircle
 10
907.3919806177771
 20
365.0
 30
-0.00000000000001
 40
9.999999999999858
100
AcDbArc
 50
0.0
 51
90.00000000000064
  0
ARC
  5
177
330
1F
100
AcDbEntity
  8
0
100
AcDbCircle
 10
945.391980617777
 20
365.0
 30
-0.00000000000001
 40
9.999999999999858
100
AcDbArc
 50
89.99999999999935
 51
180.0
  0
LINE
  5
178
330
1F
100
AcDbEntity
  8
0
100
AcDbLine
 10
917.391980617777
 20
254.9999999999999
 30
-0.00000000000001
 11
917.391980617777
 21
256.9999999999999
 31
-0.00000000000001
  0
ARC
  5
179
330
1F
100
AcDbEntity
  8
0
100
AcDbCircle
 10
942.3919806177771
 20
246.9999999999999
 30
-0.00000000000001
 40
5.0
100
AcDbArc
 50
0.0
 51
90.0
  0
ARC
  5
180
330
1F
100
AcDbEntity
  8
0
100
AcDbCircle
 10
922.391980617777
 20
256.9999999999999
 30
-0.00000000000001
 40
5.0
100
AcDbArc
 50
180.0
 51
270.0
  0
ARC
  5
181
330
1F
100
AcDbEntity
  8
0
100
AcDbCircle
 10
940.3919806177771
 20
259.9999999999999
 30
-0.00000000000001
 40
5.0
100
AcDbArc
 50
180.0
 51
270.0
  0
ARC
  5
182
330
1F
100
AcDbEntity
  8
0
100
AcDbCircle
 10
948.3919806177772
 20
250.0
 30
-0.00000000000001
 40
4.999999999999858
100
AcDbArc
 50
0.0
 51
90.00000000000132
  0
LINE
  5
183
330
1F
100
AcDbEntity
  8
0
100
AcDbLine
 10
935.3919806177771
 20
-10.0
 30
0.00000000000001
 11
935.3919806177771
 21
-10.0001
 31
0.00000000000001
  0
ARC
  5
184
330
1F
100
AcDbEntity
  8
0
100
AcDbCircle
 10
912.391980617777
 20
-14.99999999999996
 30
0.00000000000001
 40
5.0
100
AcDbArc
 50
0.0
 51
90.0
  0
ARC
  5
185
330
1F
100
AcDbEntity
  8
0
100
AcDbCircle
 10
912.391980617777
 20
-20.00000000000005
 30
0.00000000000001
 40
4.999999999999947
100
AcDbArc
 50
-90.0
 51
0.0
  0
ARC
  5
186
330
1F
100
AcDbEntity
  8
0
100
AcDbCircle
 10
930.3919806177773
 20
-10.00000005960447
 30
0.00000000000001
 40
5.000000000998524
100
AcDbArc
 50
-0.00114523256905
 51
89.99999982924788
  0
ARC
  5
187
330
1F
100
AcDbEntity
  8
0
100
AcDbCircle
 10
940.3919806177771
 20
-20.00000000000005
 30
0.00000000000001
 40
5.0
100
AcDbArc
 50
180.0
 51
270.0
  0
CIRCLE
  5
189
330
1F
100
AcDbEntity
  8
0
100
AcDbCircle
 10
912.6815771048705
 20
179.7388695724185
 30
-0.00000000000001
 40
2.500000000000012
  0
CIRCLE
  5
190
330
1F
100
AcDbEntity
  8
0
100
AcDbCircle
 10
940.103179922324
 20
179.7388695724185
 30
-0.00000000000001
 40
2.500000000000012
  0
CIRCLE
  5
191
330
1F
100
AcDbEntity
  8
0
100
AcDbCircle
 10
912.6815771048705
 20
135.2611322902266
 30
-0.00000000000001
 40
2.500000000000012
  0
CIRCLE
  5
192
330
1F
100
AcDbEntity
  8
0
100
AcDbCircle
 10
940.103179922324
 20
135.2611322902266
 30
-0.00000000000001
 40
2.500000000000012
  0
CIRCLE
  5
193
330
1F
100
AcDbEntity
  8
0
100
AcDbCircle
 10
912.6815771048705
 20
200.2576620784169
 30
-0.00000000000001
 40
2.500000000000012
  0
CIRCLE
  5
194
330
1F
100
AcDbEntity
  8
0
100
AcDbCircle
 10
912.6815771048705
 20
244.7353993606089
 30
-0.00000000000001
 40
2.500000000000012
  0
CIRCLE
  5
195
330
1F
100
AcDbEntity
  8
0
100
AcDbCircle
 10
940.103179922324
 20
244.7353993606089
 30
-0.00000000000001
 40
2.500000000000012
  0
CIRCLE
  5
196
330
1F
100
AcDbEntity
  8
0
100
AcDbCircle
 10
940.103179922324
 20
200.2576620784169
 30
-0.00000000000001
 40
2.500000000000012
  0
CIRCLE
  5
197
330
1F
100
AcDbEntity
  8
0
100
AcDbCircle
 10
912.6815771048705
 20
70.26113415287178
 30
-0.00000000000001
 40
2.500000000000012
  0
CIRCLE
  5
198
330
1F
100
AcDbEntity
  8
0
100
AcDbCircle
 10
940.103179922324
 20
70.26113415287178
 30
-0.00000000000001
 40
2.500000000000012
  0
CIRCLE
  5
199
330
1F
100
AcDbEntity
  8
0
100
AcDbCircle
 10
912.6815771048705
 20
114.7388714350637
 30
-0.00000000000001
 40
2.500000000000012
  0
CIRCLE
  5
200
330
1F
100
AcDbEntity
  8
0
100
AcDbCircle
 10
940.103179922324
 20
114.7388714350637
 30
-0.00000000000001
 40
2.500000000000012
  0
CIRCLE
  5
201
330
1F
100
AcDbEntity
  8
0
100
AcDbCircle
 10
912.6815771048705
 20
5.26112856493612
 30
-0.00000000000001
 40
2.500000000000012
  0
CIRCLE
  5
202
330
1F
100
AcDbEntity
  8
0
100
AcDbCircle
 10
940.103179922324
 20
5.26112856493612
 30
-0.00000000000001
 40
2.500000000000012
  0
CIRCLE
  5
203
330
1F
100
AcDbEntity
  8
0
100
AcDbCircle
 10
912.6815771048705
 20
49.73886584712805
 30
-0.00000000000001
 40
2.500000000000012
  0
CIRCLE
  5
204
330
1F
100
AcDbEntity
  8
0
100
AcDbCircle
 10
940.103179922324
 20
49.73886584712805
 30
-0.00000000000001
 40
2.500000000000012
  0
ELLIPSE
  5
205
330
1F
100
AcDbEntity
  8
0
100
AcDbEllipse
 10
1014.261615881857
 20
147.4912396653169
 30
-0.00000000000003
 11
0.0009221369018545441
 21
-2.517499831114897
 31
0.0
210
0.0
220
0.0
230
1.0
 40
0.99968486507295
 41
3.181501735461002
 42
6.243276225308207
  0
ELLIPSE
  5
206
330
1F
100
AcDbEntity
  8
0
100
AcDbEllipse
 10
1014.053464497732
 20
167.4911647630794
 30
-0.00000000000003
 11
-0.0009221369018545441
 21
2.517499831114897
 31
0.0
210
0.0
220
0.0
230
1.0
 40
0.99968486507295
 41
3.181501735461002
 42
6.243276225308093
  0
ELLIPSE
  5
207
330
1F
100
AcDbEntity
  8
0
100
AcDbEllipse
 10
1014.254290067344
 20
167.4912383236279
 30
-0.00000000000003
 11
0.0009221369018545441
 21
-2.517499831114897
 31
0.0
210
0.0
220
0.0
230
1.0
 40
0.99968486507295
 41
3.181501735461002
 42
6.243276225308207
  0
ELLIPSE
  5
208
330
1F
100
AcDbEntity
  8
0
100
AcDbEllipse
 10
1048.723966714949
 20
167.5038642473477
 30
-0.00000000000003
 11
0.0009221369018545441
 21
-2.517499831114897
 31
0.0
210
0.0
220
0.0
230
1.0
 40
0.99995504197456
 41
0.0150674653520658
 42
3.126525188238126
  0
ELLIPSE
  5
209
330
1F
100
AcDbEntity
  8
0
100
AcDbEllipse
 10
1048.799825116768
 20
167.5038920335786
 30
-0.00000000000003
 11
0.0009221369018545441
 21
-2.517499831114897
 31
0.0
210
0.0
220
0.0
230
1.0
 40
0.99995504197456
 41
3.156660118941745
 42
6.268117841827805
  0
ELLIPSE
  5
210
330
1F
100
AcDbEntity
  8
0
100
AcDbEllipse
 10
1048.731292529463
 20
147.5038655890366
 30
-0.00000000000001
 11
0.0009221369018545441
 21
-2.517499831114897
 31
0.0
210
0.0
220
0.0
230
1.0
 40
0.99995504197456
 41
0.0150674653521225
 42
3.126525188238069
  0
ELLIPSE
  5
211
330
1F
100
AcDbEntity
  8
0
100
AcDbEllipse
 10
1048.807150931281
 20
147.5038933752675
 30
-0.00000000000001
 11
0.0009221369018545441
 21
-2.517499831114897
 31
0.0
210
0.0
220
0.0
230
1.0
 40
0.99995504197456
 41
3.156660118941859
 42
6.268117841827805
  0
ELLIPSE
  5
212
330
1F
100
AcDbEntity
  8
0
100
AcDbEllipse
 10
1014.060790312245
 20
147.4911661047684
 30
-0.00000000000003
 11
-0.0009221369018545441
 21
2.517499831114897
 31
0.0
210
0.0
220
0.0
230
1.0
 40
0.99968486507295
 41
3.18150173546106
 42
6.24327622530815
  0
ELLIPSE
  5
213
330
1F
100
AcDbEntity
  8
0
100
AcDbEllipse
 10
804.0534644977315
 20
147.5038655890366
 30
-0.00000000000001
 11
-0.0009221369018545441
 21
-2.517499831114897
 31
0.0
210
0.0
220
0.0
230
1.0
 40
0.99995504197456
 41
3.156660118941461
 42
6.268117841827521
  0
ELLIPSE
  5
214
330
1F
100
AcDbEntity
  8
0
100
AcDbEllipse
 10
838.7239667149491
 20
147.4911661047684
 30
-0.00000000000003
 11
0.0009221369018545441
 21
2.517499831114897
 31
0.0
210
0.0
220
0.0
230
1.0
 40
0.99968486507295
 41
0.0399090818714359
 42
3.101683571718527
  0
ELLIPSE
  5
215
330
1F
100
AcDbEntity
  8
0
100
AcDbEllipse
 10
838.5304669598504
 20
167.4912383236279
 30
-0.00000000000003
 11
-0.0009221369018545441
 21
-2.517499831114897
 31
0.0
210
0.0
220
0.0
230
1.0
 40
0.99968486507295
 41
0.0399090818714364
 42
3.101683571718584
  0
ELLIPSE
  5
216
330
1F
100
AcDbEntity
  8
0
100
AcDbEllipse
 10
838.5231411453374
 20
147.4912396653169
 30
-0.00000000000003
 11
-0.0009221369018545441
 21
-2.517499831114897
 31
0.0
210
0.0
220
0.0
230
1.0
 40
0.99968486507295
 41
0.0399090818714364
 42
3.101683571718527
  0
ELLIPSE
  5
217
330
1F
100
AcDbEntity
  8
0
100
AcDbEllipse
 10
838.7312925294627
 20
167.4911647630794
 30
-0.00000000000003
 11
0.0009221369018545441
 21
2.517499831114897
 31
0.0
210
0.0
220
0.0
230
1.0
 40
0.99968486507295
 41
0.0399090818714927
 42
3.10168357171864
  0
ELLIPSE
  5
218
330
1F
100
AcDbEntity
  8
0
100
AcDbEllipse
 10
803.9776060959132
 20
147.5038933752675
 30
-0.00000000000001
 11
-0.0009221369018545441
 21
-2.517499831114897
 31
0.0
210
0.0
220
0.0
230
1.0
 40
0.99995504197456
 41
0.0150674653517811
 42
3.126525188237727
  0
ELLIPSE
  5
219
330
1F
100
AcDbEntity
  8
0
100
AcDbEllipse
 10
803.9849319104268
 20
167.5038920335786
 30
-0.00000000000003
 11
-0.0009221369018545441
 21
-2.517499831114897
 31
0.0
210
0.0
220
0.0
230
1.0
 40
0.99995504197456
 41
0.0150674653517812
 42
3.126525188237898
  0
ELLIPSE
  5
220
330
1F
100
AcDbEntity
  8
0
100
AcDbEllipse
 10
804.0607903122451
 20
167.5038642473477
 30
-0.00000000000003
 11
-0.0009221369018545441
 21
-2.517499831114897
 31
0.0
210
0.0
220
0.0
230
1.0
 40
0.99995504197456
 41
3.156660118941461
 42
6.268117841827578
  0
ENDSEC
  0
SECTION
  2
OBJECTS
  0
DICTIONARY
  5
C
330
0
100
AcDbDictionary
  3
ACAD_GROUP
350
D
  3
ACAD_LAYOUT
350
10028
  3
ACAD_MATERIAL
350
1002B
  3
ACAD_MLEADERSTYLE
350
1004A
  3
ACAD_MLINESTYLE
350
17
  3
ACAD_PLOTSETTINGS
350
10003
  3
ACAD_SCALELIST
350
10006
  3
ACAD_VISUALSTYLE
350
1002F
  3
ACDBHEADERROUNDTRIPXREC
350
1004E
  3
ACDBVARIABLEDICTIONARY
350
1006F
  3
DWGPROPS
350
10077
  0
DICTIONARY
  5
10078
330
8
100
AcDbDictionary
280
     1
  3
ACAD_XREC_ROUNDTRIP
360
10079
  0
DICTIONARY
  5
D
330
C
100
AcDbDictionary
  0
DICTIONARY
  5
10028
102
{ACAD_REACTORS
330
C
102
}
330
C
100
AcDbDictionary
  0
DICTIONARY
  5
1002B
102
{ACAD_REACTORS
330
C
102
}
330
C
100
AcDbDictionary
  3
BYBLOCK
350
1002D
  3
BYLAYER
350
1002C
  3
GLOBAL
350
1002E
  0
DICTIONARY
  5
1004A
102
{ACAD_REACTORS
330
C
102
}
330
C
100
AcDbDictionary
  3
STANDARD
350
1004B
  0
DICTIONARY
  5
17
330
C
100
AcDbDictionary
  3
STANDARD
350
10002
  0
DICTIONARY
  5
10003
102
{ACAD_REACTORS
330
C
102
}
330
C
100
AcDbDictionary
  0
DICTIONARY
  5
10006
102
{ACAD_REACTORS
330
C
102
}
330
C
100
AcDbDictionary
  3
A0
350
10007
  3
A1
350
10008
  3
A2
350
10009
  3
A3
350
1000A
  3
A4
350
1000B
  3
A5
350
1000C
  3
A6
350
1000D
  3
A7
350
1000E
  3
A8
350
1000F
  3
A9
350
10010
  3
B0
350
10011
  3
B1
350
10012
  3
B2
350
10013
  3
B3
350
10014
  3
B4
350
10015
  3
B5
350
10016
  3
B6
350
10017
  3
B7
350
10018
  3
B8
350
10019
  3
B9
350
1001A
  3
C0
350
1001B
  3
C1
350
1001C
  3
C2
350
1001D
  3
C3
350
1001E
  3
C4
350
1001F
  3
C5
350
10020
  3
C6
350
10021
  3
C7
350
10022
  3
C8
350
10023
  3
C9
350
10024
  3
D0
350
10025
  3
D1
350
10026
  3
D2
350
10027
  0
DICTIONARY
  5
1002F
102
{ACAD_REACTORS
330
C
102
}
330
C
100
AcDbDictionary
  3
2DWIREFRAME
350
10034
  3
BASIC
350
10037
  3
BRIGHTEN
350
1003B
  3
COLORCHANGE
350
1003F
  3
CONCEPTUAL
350
10039
  3
DIM
350
1003A
  3
EDGECOLOROFF
350
10042
  3
FACEPATTERN
350
1003E
  3
FLAT
350
10030
  3
FLATWITHEDGES
350
10031
  3
GOURAUD
350
10032
  3
GOURAUDWITHEDGES
350
10033
  3
HIDDEN
350
10036
  3
JITTEROFF
350
10040
  3
LINEPATTERN
350
1003D
  3
OVERHANGOFF
350
10041
  3
REALISTIC
350
10038
  3
SHADED
350
10047
  3
SHADED_WITH_EDGES
350
10046
  3
SHADES_OF_GRAY
350
10043
  3
SKETCHY
350
10044
  3
THICKEN
350
1003C
  3
WIREFRAME
350
10035
  3
X-RAY
350
10045
  0
DICTIONARY
  5
1004E
102
{ACAD_REACTORS
330
C
102
}
330
C
100
AcDbDictionary
  3
CEPSNID
350
10058
  3
CEPSNTYPE
350
10057
  3
DIMSTYLEDATA
350
1006E
  3
FINGERPRINTGUID
350
10059
  3
HYPERLINKBASE
350
10051
  3
INSUNITS
350
10056
  3
LAYOUTDICT
350
10053
  3
LWETCUNION
350
10055
  3
PLOTSETDICT
350
10054
  3
PSVPSCALE
350
1005B
  3
PUCSBASE
350
1005E
  3
PUCSORGBACK
350
10064
  3
PUCSORGBOTTOM
350
10060
  3
PUCSORGFRONT
350
10063
  3
PUCSORGLEFT
350
10061
  3
PUCSORGRIGHT
350
10062
  3
PUCSORGTOP
350
1005F
  3
PUCSORTHOREF
350
1005C
  3
PUCSORTHOVIEW
350
1005D
  3
STYLESHEET
350
10052
  3
TSTACKALIGN
350
1004F
  3
TSTACKSIZE
350
10050
  3
UCSBASE
350
10067
  3
UCSORGBACK
350
1006D
  3
UCSORGBOTTOM
350
10069
  3
UCSORGFRONT
350
1006C
  3
UCSORGLEFT
350
1006A
  3
UCSORGRIGHT
350
1006B
  3
UCSORGTOP
350
10068
  3
UCSORTHOREF
350
10065
  3
UCSORTHOVIEW
350
10066
  3
VERSIONGUID
350
1005A
  0
DICTIONARY
  5
1006F
102
{ACAD_REACTORS
330
C
102
}
330
C
100
AcDbDictionary
  3
CANNOSCALE
350
1007A
  3
CMLEADERSTYLE
350
10071
  3
CTABLESTYLE
350
10070
  3
DIMASSOC
350
10075
  3
HIDETEXT
350
10076
  3
MSLTSCALE
350
10072
  0
XRECORD
  5
10077
102
{ACAD_REACTORS
330
C
102
}
330
C
100
AcDbXrecord
  1
DWGPROPS COOKIE
  2

  3

  4

  6

  7

  8
rowan
  9

300
=
301
=
302
=
303
=
304
=
305
=
306
=
307
=
308
=
309
=
 40
0.0
 41
0.0
 42
2458969.402194039
  1

 90
        0
  0
XRECORD
  5
10079
102
{ACAD_REACTORS
330
10078
102
}
330
10078
100
AcDbXrecord
102
VTR_0.000_0.000_1.000_1.000_GRIDDISPLAY
 70
     3
102
VTR_0.000_0.000_1.000_1.000_GRIDMAJOR
 70
     5
102
VTR_0.000_0.000_1.000_1.000_DEFAULTLIGHTING
280
     1
102
VTR_0.000_0.000_1.000_1.000_DEFAULTLIGHTINGTYPE
 70
     1
102
VTR_0.000_0.000_1.000_1.000_BRIGHTNESS
141
0.0
102
VTR_0.000_0.000_1.000_1.000_CONTRAST
142
0.0
  0
MATERIAL
  5
1002D
102
{ACAD_REACTORS
330
1002B
102
}
102
{ACAD_XDICTIONARY
360
1007D
102
}
330
1002B
100
AcDbMaterial
  1
BYBLOCK
  0
MATERIAL
  5
1002C
102
{ACAD_REACTORS
330
1002B
102
}
102
{ACAD_XDICTIONARY
360
1007B
102
}
330
1002B
100
AcDbMaterial
  1
BYLAYER
  0
MATERIAL
  5
1002E
102
{ACAD_REACTORS
330
1002B
102
}
102
{ACAD_XDICTIONARY
360
1007F
102
}
330
1002B
100
AcDbMaterial
  1
GLOBAL
  0
ACAD_PROXY_OBJECT
  5
1004B
102
{ACAD_REACTORS
330
1004A
102
}
330
1004A
100
AcDbProxyObject
 90
      499
 91
      505
 93
      610
310
40901902A4063FBFFFFFE056BD1B81E855B9FC0AD7A3703D0AD73F4214DD185B99185C9900AD7A3703D0AC73F90141901A02B5E8DC0F42B1CFC02B5E8DC0F42B1CFE5764000000000000300FC0
340
14
340
0
340
11
340
0
 94
        0
1001
ACAD_MLEADERVER
1070
     2
  0
MLINESTYLE
  5
10002
102
{ACAD_REACTORS
330
17
102
}
330
17
100
AcDbMlineStyle
  2
Standard
 70
     0
  3

 62
   256
 51
90.0
 52
90.0
 71
     2
 49
0.5
 62
   256
  6
BYLAYER
 49
-0.5
 62
   256
  6
BYLAYER
  0
ACAD_PROXY_OBJECT
  5
10007
102
{ACAD_REACTORS
330
10006
102
}
330
10006
100
AcDbProxyObject
 90
      499
 91
      501
 93
       41
310
903313A31580
  0
ACAD_PROXY_OBJECT
  5
10008
102
{ACAD_REACTORS
330
10006
102
}
330
10006
100
AcDbProxyObject
 90
      499
 91
      501
 93
      105
310
903313A324000000000000004000
  0
ACAD_PROXY_OBJECT
  5
10009
102
{ACAD_REACTORS
330
10006
102
}
330
10006
100
AcDbProxyObject
 90
      499
 91
      501
 93
      105
310
903313A344000000000000104000
  0
ACAD_PROXY_OBJECT
  5
1000A
102
{ACAD_REACTORS
330
10006
102
}
330
10006
100
AcDbProxyObject
 90
      499
 91
      501
 93
      105
310
903313A354000000000000144000
  0
ACAD_PROXY_OBJECT
  5
1000B
102
{ACAD_REACTORS
330
10006
102
}
330
10006
100
AcDbProxyObject
 90
      499
 91
      501
 93
      105
310
903313A384000000000000204000
  0
ACAD_PROXY_OBJECT
  5
1000C
102
{ACAD_REACTORS
330
10006
102
}
330
10006
100
AcDbProxyObject
 90
      499
 91
      501
 93
      113
310
904313A31304000000000000244000
  0
ACAD_PROXY_OBJECT
  5
1000D
102
{ACAD_REACTORS
330
10006
102
}
330
10006
100
AcDbProxyObject
 90
      499
 91
      501
 93
      113
310
904313A31364000000000000304000
  0
ACAD_PROXY_OBJECT
  5
1000E
102
{ACAD_REACTORS
330
10006
102
}
330
10006
100
AcDbProxyObject
 90
      499
 91
      501
 93
      113
310
904313A32304000000000000344000
  0
ACAD_PROXY_OBJECT
  5
1000F
102
{ACAD_REACTORS
330
10006
102
}
330
10006
100
AcDbProxyObject
 90
      499
 91
      501
 93
      113
310
904313A333040000000000003E4000
  0
ACAD_PROXY_OBJECT
  5
10010
102
{ACAD_REACTORS
330
10006
102
}
330
10006
100
AcDbProxyObject
 90
      499
 91
      501
 93
      113
310
904313A34304000000000000444000
  0
ACAD_PROXY_OBJECT
  5
10011
102
{ACAD_REACTORS
330
10006
102
}
330
10006
100
AcDbProxyObject
 90
      499
 91
      501
 93
      113
310
904313A35304000000000000494000
  0
ACAD_PROXY_OBJECT
  5
10012
102
{ACAD_REACTORS
330
10006
102
}
330
10006
100
AcDbProxyObject
 90
      499
 91
      501
 93
      121
310
905313A3130304000000000000594000
  0
ACAD_PROXY_OBJECT
  5
10013
102
{ACAD_REACTORS
330
10006
102
}
330
10006
100
AcDbProxyObject
 90
      499
 91
      501
 93
      105
310
903323A310000000000000010100
  0
ACAD_PROXY_OBJECT
  5
10014
102
{ACAD_REACTORS
330
10006
102
}
330
10006
100
AcDbProxyObject
 90
      499
 91
      501
 93
      105
310
903343A310000000000000410100
  0
ACAD_PROXY_OBJECT
  5
10015
102
{ACAD_REACTORS
330
10006
102
}
330
10006
100
AcDbProxyObject
 90
      499
 91
      501
 93
      105
310
903383A310000000000000810100
  0
ACAD_PROXY_OBJECT
  5
10016
102
{ACAD_REACTORS
330
10006
102
}
330
10006
100
AcDbProxyObject
 90
      499
 91
      501
 93
      113
310
90431303A310000000000000910100
  0
ACAD_PROXY_OBJECT
  5
10017
102
{ACAD_REACTORS
330
10006
102
}
330
10006
100
AcDbProxyObject
 90
      499
 91
      501
 93
      121
310
9053130303A310000000000001650100
  0
ACAD_PROXY_OBJECT
  5
10018
102
{ACAD_REACTORS
330
10006
102
}
330
10006
100
AcDbProxyObject
 90
      499
 91
      501
 93
      257
310
90E312F31323822203D2031272D3022000000000000200FC000000000000284000
  0
ACAD_PROXY_OBJECT
  5
10019
102
{ACAD_REACTORS
330
10006
102
}
330
10006
100
AcDbProxyObject
 90
      499
 91
      501
 93
      249
310
90D312F363422203D2031272D3022000000000000240FC000000000000284000
  0
ACAD_PROXY_OBJECT
  5
1001A
102
{ACAD_REACTORS
330
10006
102
}
330
10006
100
AcDbProxyObject
 90
      499
 91
      501
 93
      249
310
90D312F333222203D2031272D3022000000000000280FC000000000000284000
  0
ACAD_PROXY_OBJECT
  5
1001B
102
{ACAD_REACTORS
330
10006
102
}
330
10006
100
AcDbProxyObject
 90
      499
 91
      501
 93
      249
310
90D312F313622203D2031272D30220000000000002C0FC000000000000284000
  0
ACAD_PROXY_OBJECT
  5
1001C
102
{ACAD_REACTORS
330
10006
102
}
330
10006
100
AcDbProxyObject
 90
      499
 91
      501
 93
      249
310
90D332F333222203D2031272D30220000000000002E0FC000000000000284000
  0
ACAD_PROXY_OBJECT
  5
1001D
102
{ACAD_REACTORS
330
10006
102
}
330
10006
100
AcDbProxyObject
 90
      499
 91
      501
 93
      241
310
90C312F3822203D2031272D3022000000000000300FC000000000000284000
  0
ACAD_PROXY_OBJECT
  5
1001E
102
{ACAD_REACTORS
330
10006
102
}
330
10006
100
AcDbProxyObject
 90
      499
 91
      501
 93
      249
310
90D332F313622203D2031272D3022000000000000320FC000000000000284000
  0
ACAD_PROXY_OBJECT
  5
1001F
102
{ACAD_REACTORS
330
10006
102
}
330
10006
100
AcDbProxyObject
 90
      499
 91
      501
 93
      241
310
90C312F3422203D2031272D3022000000000000340FC000000000000284000
  0
ACAD_PROXY_OBJECT
  5
10020
102
{ACAD_REACTORS
330
10006
102
}
330
10006
100
AcDbProxyObject
 90
      499
 91
      501
 93
      241
310
90C332F3822203D2031272D3022000000000000360FC000000000000284000
  0
ACAD_PROXY_OBJECT
  5
10021
102
{ACAD_REACTORS
330
10006
102
}
330
10006
100
AcDbProxyObject
 90
      499
 91
      501
 93
      241
310
90C312F3222203D2031272D3022000000000000380FC000000000000284000
  0
ACAD_PROXY_OBJECT
  5
10022
102
{ACAD_REACTORS
330
10006
102
}
330
10006
100
AcDbProxyObject
 90
      499
 91
      501
 93
      241
310
90C332F3422203D2031272D30220000000000003A0FC000000000000284000
  0
ACAD_PROXY_OBJECT
  5
10023
102
{ACAD_REACTORS
330
10006
102
}
330
10006
100
AcDbProxyObject
 90
      499
 91
      501
 93
      161
310
90A3122203D2031272D30224000000000000284000
  0
ACAD_PROXY_OBJECT
  5
10024
102
{ACAD_REACTORS
330
10006
102
}
330
10006
100
AcDbProxyObject
 90
      499
 91
      501
 93
      257
310
90E312D312F3222203D2031272D30220000000000003E0FC000000000000284000
  0
ACAD_PROXY_OBJECT
  5
10025
102
{ACAD_REACTORS
330
10006
102
}
330
10006
100
AcDbProxyObject
 90
      499
 91
      501
 93
      225
310
90A3322203D2031272D302200000000000002100000000000000284000
  0
ACAD_PROXY_OBJECT
  5
10026
102
{ACAD_REACTORS
330
10006
102
}
330
10006
100
AcDbProxyObject
 90
      499
 91
      501
 93
      225
310
90A3622203D2031272D302200000000000006100000000000000284000
  0
ACAD_PROXY_OBJECT
  5
10027
102
{ACAD_REACTORS
330
10006
102
}
330
10006
100
AcDbProxyObject
 90
      499
 91
      501
 93
      249
310
90D31272D3022203D2031272D30220000000000000A100000000000000284000
  0
ACAD_PROXY_OBJECT
  5
10034
102
{ACAD_REACTORS
330
1002F
102
}
330
1002F
100
AcDbProxyObject
 90
      499
 91
      503
 93
      436
310
42CC9915DA5C99599C985B595049028333333333333E33F0000000000000F90107901411070040501600405405064090741402480A0340
1001
ACAD
1000
AcDbSavedByObjectVersion
1070
     0
  0
ACAD_PROXY_OBJECT
  5
10037
102
{ACAD_REACTORS
330
1002F
102
}
330
1002F
100
AcDbProxyObject
 90
      499
 91
      503
 93
      388
310
4150985CDA58D07406404333333333333E33F0000000000000F90107A41107004050150841D405064090741402480A0350
1001
ACAD
1000
AcDbSavedByObjectVersion
1070
     0
  0
ACAD_PROXY_OBJECT
  5
1003B
102
{ACAD_REACTORS
330
1002F
102
}
330
1002F
100
AcDbProxyObject
 90
      499
 91
      503
 93
      428
310
42109C9A59DA1D195B90C409028333333333333E33F0000000000000F9010790141107004050150841D405064090741402480A029950
1001
ACAD
1000
AcDbSavedByObjectVersion
1070
     0
  0
ACAD_PROXY_OBJECT
  5
1003F
102
{ACAD_REACTORS
330
1002F
102
}
330
1002F
100
AcDbProxyObject
 90
      499
 91
      503
 93
      452
310
42D0DBDB1BDC90DA185B99D95104090240C333333333333E33F0000000000000F90108901411070040501508421405064090741402480A0350
1001
ACAD
1000
AcDbSavedByObjectVersion
1070
     0
  0
ACAD_PROXY_OBJECT
  5
10039
102
{ACAD_REACTORS
330
1002F
102
}
330
1002F
100
AcDbProxyObject
 90
      499
 91
      503
 93
      500
310
4290DBDB98D95C1D1D585B10940D028333333333333E33F0000000000000F90107902409070040501000000000018199010841D405064090740C02480A0340
1001
ACAD
1000
AcDbSavedByObjectVersion
1070
     0
  0
ACAD_PROXY_OBJECT
  5
1003A
102
{ACAD_REACTORS
330
1002F
102
}
330
1002F
100
AcDbProxyObject
 90
      499
 91
      503
 93
      412
310
40D11A5B50B409028333333333333E33F0000000000000F9010790141107004050150841D405064090741402480A02677FFFFFD0
1001
ACAD
1000
AcDbSavedByObjectVersion
1070
     0
  0
ACAD_PROXY_OBJECT
  5
10042
102
{ACAD_REACTORS
330
1002F
102
}
330
1002F
100
AcDbProxyObject
 90
      499
 91
      503
 93
      452
310
43115919D950DBDB1BDC93D999916409028333333333333E33F0000000000000F9010790141107004050150841D405064090741402480A0350
1001
ACAD
1000
AcDbSavedByObjectVersion
1070
     0
  0
ACAD_PROXY_OBJECT
  5
1003E
102
{ACAD_REACTORS
330
1002F
102
}
330
1002F
100
AcDbProxyObject
 90
      499
 91
      503
 93
      444
310
42D19858D95C185D1D195C9B90F409028333333333333E33F0000000000000F9010790141107004050150841D405064090741402480A0350
1001
ACAD
1000
AcDbSavedByObjectVersion
1070
     0
  0
ACAD_PROXY_OBJECT
  5
10030
102
{ACAD_REACTORS
330
1002F
102
}
330
1002F
100
AcDbProxyObject
 90
      499
 91
      503
 93
      380
310
41119B185D240901404333333333333E33F0000000000000F9010740A907004050150841D405064090741402480A1B50
1001
ACAD
1000
AcDbSavedByObjectVersion
1070
     0
  0
ACAD_PROXY_OBJECT
  5
10031
102
{ACAD_REACTORS
330
1002F
102
}
330
1002F
100
AcDbProxyObject
 90
      499
 91
      503
 93
      468
310
43519B185D15DA5D1A115919D95CD0140901404333333333333E33F0000000000000F90107409019070040501600405405064090741402480A1B50
1001
ACAD
1000
AcDbSavedByObjectVersion
1070
     0
  0
ACAD_PROXY_OBJECT
  5
10032
102
{ACAD_REACTORS
330
1002F
102
}
330
1002F
100
AcDbProxyObject
 90
      499
 91
      503
 93
      404
310
41D1DBDD5C985D5910240902404333333333333E33F0000000000000F9010740A9070040501641D405064090741402480A1B50
1001
ACAD
1000
AcDbSavedByObjectVersion
1070
     0
  0
ACAD_PROXY_OBJECT
  5
10033
102
{ACAD_REACTORS
330
1002F
102
}
330
1002F
100
AcDbProxyObject
 90
      499
 91
      503
 93
      492
310
4411DBDD5C985D5915DA5D1A115919D95CD0340902404333333333333E33F0000000000000F90107409019070040501600405405064090741402480A1B50
1001
ACAD
1000
AcDbSavedByObjectVersion
1070
     0
  0
ACAD_PROXY_OBJECT
  5
10036
102
{ACAD_REACTORS
330
1002F
102
}
330
1002F
100
AcDbProxyObject
 90
      499
 91
      503
 93
      476
310
41921A5919195B90640502408333333333333E33F0000000000000F901079024090700405020000000000001110200405405064090740C02480A0340
1001
ACAD
1000
AcDbSavedByObjectVersion
1070
     0
  0
ACAD_PROXY_OBJECT
  5
10040
102
{ACAD_REACTORS
330
1002F
102
}
330
1002F
100
AcDbProxyObject
 90
      499
 91
      503
 93
      428
310
42529A5D1D195C93D999914409028333333333333E33F0000000000000F9010790141107004050150A41D405064090741402480A0350
1001
ACAD
1000
AcDbSavedByObjectVersion
1070
     0
  0
ACAD_PROXY_OBJECT
  5
1003D
102
{ACAD_REACTORS
330
1002F
102
}
330
1002F
100
AcDbProxyObject
 90
      499
 91
      503
 93
      444
310
42D31A5B995C185D1D195C9B90E409028333333333333E33F0000000000000F9010790141107004050750841D405064090741402483A0350
1001
ACAD
1000
AcDbSavedByObjectVersion
1070
     0
  0
ACAD_PROXY_OBJECT
  5
10041
102
{ACAD_REACTORS
330
1002F
102
}
330
1002F
100
AcDbProxyObject
 90
      499
 91
      503
 93
      444
310
42D3DD995C9A185B99D3D999915409028333333333333E33F0000000000000F9010790141107004050150941D405064090741402480A0350
1001
ACAD
1000
AcDbSavedByObjectVersion
1070
     0
  0
ACAD_PROXY_OBJECT
  5
10038
102
{ACAD_REACTORS
330
1002F
102
}
330
1002F
100
AcDbProxyObject
 90
      499
 91
      503
 93
      428
310
425499585B1A5CDD1A58D08409038333333333333E33F0000000000000F9010740A907004050150800405405064090740C02480A1B40
1001
ACAD
1000
AcDbSavedByObjectVersion
1070
     0
  0
ACAD_PROXY_OBJECT
  5
10047
102
{ACAD_REACTORS
330
1002F
102
}
330
1002F
100
AcDbProxyObject
 90
      499
 91
      503
 93
      420
310
4194DA1859195911B40902404333333333333E33F0000000000000F9010740A41107004050150800405405064090840C02480A0B40
1001
ACAD
1000
AcDbSavedByObjectVersion
1070
     0
  0
ACAD_PROXY_OBJECT
  5
10046
102
{ACAD_REACTORS
330
1002F
102
}
330
1002F
100
AcDbProxyObject
 90
      499
 91
      503
 93
      516
310
4454DA18591959081DDA5D1A08195919D95CD1A40902404333333333333E33F0000000000000F901074090142907004050250800405405064090740C02480A0B40
1001
ACAD
1000
AcDbSavedByObjectVersion
1070
     0
  0
ACAD_PROXY_OBJECT
  5
10043
102
{ACAD_REACTORS
330
1002F
102
}
330
1002F
100
AcDbProxyObject
 90
      499
 91
      503
 93
      532
310
4394DA1859195CC81BD98811DC985E5174090240C333333333333E33F0000000000000F901079024090741D01000000000000111010841D405064090740C02480A0340
1001
ACAD
1000
AcDbSavedByObjectVersion
1070
     0
  0
ACAD_PROXY_OBJECT
  5
10044
102
{ACAD_REACTORS
330
1002F
102
}
330
1002F
100
AcDbProxyObject
 90
      499
 91
      503
 93
      476
310
41D4DAD95D18DA1E51840502408333333333333E33F0000000000000F901079024090741D01000000000000111010B41D405064090741802480A0340
1001
ACAD
1000
AcDbSavedByObjectVersion
1070
     0
  0
ACAD_PROXY_OBJECT
  5
1003C
102
{ACAD_REACTORS
330
1002F
102
}
330
1002F
100
AcDbProxyObject
 90
      499
 91
      503
 93
      412
310
41D51A1A58DAD95B90D409028333333333333E33F0000000000000F9010790141107004050150C41D405064090741402480A0350
1001
ACAD
1000
AcDbSavedByObjectVersion
1070
     0
  0
ACAD_PROXY_OBJECT
  5
10035
102
{ACAD_REACTORS
330
1002F
102
}
330
1002F
100
AcDbProxyObject
 90
      499
 91
      503
 93
      420
310
4255DA5C99599C985B595059028333333333333E33F0000000000000F90107901411070040501600405405064090740C02480A0340
1001
ACAD
1000
AcDbSavedByObjectVersion
1070
     0
  0
ACAD_PROXY_OBJECT
  5
10045
102
{ACAD_REACTORS
330
1002F
102
}
330
1002F
100
AcDbProxyObject
 90
      499
 91
      503
 93
      404
310
41560B54985E51940902404000000000000E03F0000000000000F9010740501907004050150841D405064090740C02480A1B40
1001
ACAD
1000
AcDbSavedByObjectVersion
1070
     0
  0
XRECORD
  5
10058
102
{ACAD_REACTORS
330
1004E
102
}
330
1004E
100
AcDbXrecord
340
0
  0
XRECORD
  5
10057
102
{ACAD_REACTORS
330
1004E
102
}
330
1004E
100
AcDbXrecord
 90
        0
  0
XRECORD
  5
1006E
102
{ACAD_REACTORS
330
1004E
102
}
330
1004E
100
AcDbXrecord
1000
DSTYLE
1002
{
1070
   279
 70
     2
1070
   340
340
11
1002
}
  0
XRECORD
  5
10059
102
{ACAD_REACTORS
330
1004E
102
}
330
1004E
100
AcDbXrecord
  1
{dfed8fb2-19c4-41a5-a381-f08a25c7cc4e}
  0
XRECORD
  5
10051
102
{ACAD_REACTORS
330
1004E
102
}
330
1004E
100
AcDbXrecord
  1

  0
XRECORD
  5
10056
102
{ACAD_REACTORS
330
1004E
102
}
330
1004E
100
AcDbXrecord
 90
        4
  0
XRECORD
  5
10053
102
{ACAD_REACTORS
330
1004E
102
}
330
1004E
100
AcDbXrecord
340
10028
  0
XRECORD
  5
10055
102
{ACAD_REACTORS
330
1004E
102
}
330
1004E
100
AcDbXrecord
 90
    10781
  0
XRECORD
  5
10054
102
{ACAD_REACTORS
330
1004E
102
}
330
1004E
100
AcDbXrecord
340
10003
  0
XRECORD
  5
1005B
102
{ACAD_REACTORS
330
1004E
102
}
330
1004E
100
AcDbXrecord
 40
0.0
  0
XRECORD
  5
1005E
102
{ACAD_REACTORS
330
1004E
102
}
330
1004E
100
AcDbXrecord
340
0
  0
XRECORD
  5
10064
102
{ACAD_REACTORS
330
1004E
102
}
330
1004E
100
AcDbXrecord
 10
0.0
 20
0.0
 30
0.0
  0
XRECORD
  5
10060
102
{ACAD_REACTORS
330
1004E
102
}
330
1004E
100
AcDbXrecord
 10
0.0
 20
0.0
 30
0.0
  0
XRECORD
  5
10063
102
{ACAD_REACTORS
330
1004E
102
}
330
1004E
100
AcDbXrecord
 10
0.0
 20
0.0
 30
0.0
  0
XRECORD
  5
10061
102
{ACAD_REACTORS
330
1004E
102
}
330
1004E
100
AcDbXrecord
 10
0.0
 20
0.0
 30
0.0
  0
XRECORD
  5
10062
102
{ACAD_REACTORS
330
1004E
102
}
330
1004E
100
AcDbXrecord
 10
0.0
 20
0.0
 30
0.0
  0
XRECORD
  5
1005F
102
{ACAD_REACTORS
330
1004E
102
}
330
1004E
100
AcDbXrecord
 10
0.0
 20
0.0
 30
0.0
  0
XRECORD
  5
1005C
102
{ACAD_REACTORS
330
1004E
102
}
330
1004E
100
AcDbXrecord
340
0
  0
XRECORD
  5
1005D
102
{ACAD_REACTORS
330
1004E
102
}
330
1004E
100
AcDbXrecord
 70
     0
  0
XRECORD
  5
10052
102
{ACAD_REACTORS
330
1004E
102
}
330
1004E
100
AcDbXrecord
  1

  0
XRECORD
  5
1004F
102
{ACAD_REACTORS
330
1004E
102
}
330
1004E
100
AcDbXrecord
 90
        1
  0
XRECORD
  5
10050
102
{ACAD_REACTORS
330
1004E
102
}
330
1004E
100
AcDbXrecord
 90
       70
  0
XRECORD
  5
10067
102
{ACAD_REACTORS
330
1004E
102
}
330
1004E
100
AcDbXrecord
340
0
  0
XRECORD
  5
1006D
102
{ACAD_REACTORS
330
1004E
102
}
330
1004E
100
AcDbXrecord
 10
0.0
 20
0.0
 30
0.0
  0
XRECORD
  5
10069
102
{ACAD_REACTORS
330
1004E
102
}
330
1004E
100
AcDbXrecord
 10
0.0
 20
0.0
 30
0.0
  0
XRECORD
  5
1006C
102
{ACAD_REACTORS
330
1004E
102
}
330
1004E
100
AcDbXrecord
 10
0.0
 20
0.0
 30
0.0
  0
XRECORD
  5
1006A
102
{ACAD_REACTORS
330
1004E
102
}
330
1004E
100
AcDbXrecord
 10
0.0
 20
0.0
 30
0.0
  0
XRECORD
  5
1006B
102
{ACAD_REACTORS
330
1004E
102
}
330
1004E
100
AcDbXrecord
 10
0.0
 20
0.0
 30
0.0
  0
XRECORD
  5
10068
102
{ACAD_REACTORS
330
1004E
102
}
330
1004E
100
AcDbXrecord
 10
0.0
 20
0.0
 30
0.0
  0
XRECORD
  5
10065
102
{ACAD_REACTORS
330
1004E
102
}
330
1004E
100
AcDbXrecord
340
0
  0
XRECORD
  5
10066
102
{ACAD_REACTORS
330
1004E
102
}
330
1004E
100
AcDbXrecord
 70
     0
  0
XRECORD
  5
1005A
102
{ACAD_REACTORS
330
1004E
102
}
330
1004E
100
AcDbXrecord
  1
{FAEB1C32-E019-11D5-929B-00C0DF256EC4}
  0
DICTIONARYVAR
  5
1007A
102
{ACAD_REACTORS
330
1006F
102
}
330
1006F
100
DictionaryVariables
280
     0
  1
1:1
  0
DICTIONARYVAR
  5
10071
102
{ACAD_REACTORS
330
1006F
102
}
330
1006F
100
DictionaryVariables
280
     0
  1
Standard
  0
DICTIONARYVAR
  5
10070
102
{ACAD_REACTORS
330
1006F
102
}
330
1006F
100
DictionaryVariables
280
     0
  1
Standard
  0
DICTIONARYVAR
  5
10075
102
{ACAD_REACTORS
330
1006F
102
}
330
1006F
100
DictionaryVariables
280
     0
  1
2
  0
DICTIONARYVAR
  5
10076
102
{ACAD_REACTORS
330
1006F
102
}
330
1006F
100
DictionaryVariables
280
     0
  1
1
  0
DICTIONARYVAR
  5
10072
102
{ACAD_REACTORS
330
1006F
102
}
330
1006F
100
DictionaryVariables
280
     0
  1
0
  0
DICTIONARY
  5
1007D
330
1002D
100
AcDbDictionary
280
     1
  3
ACAD_XREC_ROUNDTRIP
360
1007E
  0
DICTIONARY
  5
1007B
330
1002C
100
AcDbDictionary
280
     1
  3
ACAD_XREC_ROUNDTRIP
360
1007C
  0
DICTIONARY
  5
1007F
330
1002E
100
AcDbDictionary
280
     1
  3
ACAD_XREC_ROUNDTRIP
360
10080
  0
XRECORD
  5
1007E
102
{ACAD_REACTORS
330
1007D
102
}
330
1007D
100
AcDbXrecord
102
MATERIAL
148
0.0
149
0.0
149
0.0
 93
        0
 94
      127
282
     0
 72
     1
 77
     1
171
     1
175
     1
179
     1
273
     0
  0
XRECORD
  5
1007C
102
{ACAD_REACTORS
330
1007B
102
}
330
1007B
100
AcDbXrecord
102
MATERIAL
148
0.0
149
0.0
149
0.0
 93
        0
 94
      127
282
     0
 72
     1
 77
     1
171
     1
175
     1
179
     1
273
     0
  0
XRECORD
  5
10080
102
{ACAD_REACTORS
330
1007F
102
}
330
1007F
100
AcDbXrecord
102
MATERIAL
148
0.0
149
0.0
149
0.0
 93
        0
 94
      127
282
     0
 72
     1
 77
     1
171
     1
175
     1
179
     1
273
     0
  0
ENDSEC
  0
EOF
