0
SECTION
2
HEADER
9
$INSUNITS
70
4
9
$ACADVER
1
AC1014
9
$HANDSEED
5
FFFF
0
ENDSEC
0
SECTION
2
TABLES
0
TABLE
2
VPORT
5
8
100
AcDbSymbolTable
0
ENDTAB
0
TABLE
2
LTYPE
5
5
100
AcDbSymbolTable
0
LTYPE
5
14
100
AcDbSymbolTableRecord
100
AcDbLinetypeTableRecord
2
BYBLOCK
70
0
0
LTYPE
5
15
100
AcDbSymbolTableRecord
100
AcDbLinetypeTableRecord
2
BYLAYER
70
0
0
ENDTAB
0
TABLE
2
LAYER
5
2
100
AcDbSymbolTable
70
2
0
LAYER
5
50
100
AcDbSymbolTableRecord
100
AcDbLayerTableRecord
2
0
70
0
6
CONTINUOUS
0
ENDTAB
0
TABLE
2
STYLE
5
3
100
AcDbSymbolTable
70
1
0
STYLE
5
11
100
AcDbSymbolTableRecord
100
AcDbTextStyleTableRecord
2
STANDARD
70
0
0
ENDTAB
0
TABLE
2
VIEW
5
6
100
AcDbSymbolTable
70
0
0
ENDTAB
0
TABLE
2
UCS
5
7
100
AcDbSymbolTable
70
0
0
ENDTAB
0
TABLE
2
APPID
5
9
100
AcDbSymbolTable
70
2
0
APPID
5
12
100
AcDbSymbolTableRecord
100
AcDbRegAppTableRecord
2
ACAD
70
0
0
ENDTAB
0
TABLE
2
DIMSTYLE
5
A
100
AcDbSymbolTable
70
1
0
ENDTAB
0
TABLE
2
BLOCK_RECORD
5
1
100
AcDbSymbolTable
70
1
0
BLOCK_RECORD
5
1F
100
AcDbSymbolTableRecord
100
AcDbBlockTableRecord
2
*MODEL_SPACE
0
BLOCK_RECORD
5
1B
100
AcDbSymbolTableRecord
100
AcDbBlockTableRecord
2
*PAPER_SPACE
0
ENDTAB
0
ENDSEC
0
SECTION
2
BLOCKS
0
BLOCK
5
20
100
AcDbEntity
100
AcDbBlockBegin
2
*MODEL_SPACE
0
ENDBLK
5
21
100
AcDbEntity
100
AcDbBlockEnd
0
BLOCK
5
1C
100
AcDbEntity
100
AcDbBlockBegin
2
*PAPER_SPACE
0
ENDBLK
5
1D
100
AcDbEntity
100
AcDbBlockEnd
0
ENDSEC
0
SECTION
2
ENTITIES
0
ELLIPSE
5
100
100
AcDbEntity
8
0
100
AcDbEllipse
10
871.722719137897
20
186.08454622700299
30
-8.8817841970012523e-15
11
8.1176005818538046e-29
21
-2.5175000000000001
31
0.0
40
0.99995504197455565
41
0.015067465351781375
42
3.1265251346479115
0
ELLIPSE
5
101
100
AcDbEntity
8
0
100
AcDbEllipse
10
871.72271913789677
20
166.08454622700293
30
8.8817841970012523e-15
11
8.1176005818538046e-29
21
-2.5175000000000001
31
0.0
40
0.99995504197455565
41
0.015067465351724537
42
3.1265251346479683
0
ELLIPSE
5
102
100
AcDbEntity
8
0
100
AcDbEllipse
10
906.46908208787318
20
166.08454622700287
30
-8.8817841970012523e-15
11
-7.4473399833521165e-31
21
2.5175000000000001
31
0.0
40
0.99968486507294896
41
0.03990908187138021
42
3.1016835181287306
0
ELLIPSE
5
103
100
AcDbEntity
8
0
100
AcDbEllipse
10
906.26825650478906
20
166.08454622700287
30
-8.8817841970012523e-15
11
7.4473399833521165e-31
21
-2.5175000000000001
31
0.0
40
0.99968486507294896
41
0.039909081871435881
42
3.1016835181286724
0
ELLIPSE
5
104
100
AcDbEntity
8
0
100
AcDbEllipse
10
906.46908208787318
20
186.08454622700287
30
-8.8817841970012523e-15
11
-7.4473399833521165e-31
21
2.5175000000000001
31
0.0
40
0.99968486507294896
41
0.039909081871380779
42
3.101683518128731
0
ELLIPSE
5
105
100
AcDbEntity
8
0
100
AcDbEllipse
10
871.79857754480417
20
186.08454622700299
30
-8.8817841970012523e-15
11
8.1176005818538046e-29
21
-2.5175000000000001
31
0.0
40
0.99995504197455565
41
3.1566600653517014
42
6.2681178418275776
0
ELLIPSE
5
106
100
AcDbEntity
8
0
100
AcDbEllipse
10
906.26825650478906
20
186.08454622700287
30
-8.8817841970012523e-15
11
7.4473399833521165e-31
21
-2.5175000000000001
31
0.0
40
0.99968486507294896
41
0.039909081871435312
42
3.1016835181286724
0
ELLIPSE
5
107
100
AcDbEntity
8
0
100
AcDbEllipse
10
871.79857754480395
20
166.08454622700293
30
8.8817841970012523e-15
11
8.1176005818538046e-29
21
-2.5175000000000001
31
0.0
40
0.99995504197455565
41
3.1566600653516446
42
6.2681178418275776
0
LINE
5
108
100
AcDbEntity
8
0
100
AcDbLine
10
937.78280756876052
20
-24.785494005334073
30
0
11
937.78051175423582
21
364.84830459508606
31
3.1120939159023919e-14
0
LINE
5
109
100
AcDbEntity
8
0
100
AcDbLine
10
1045.5680392776233
20
209.6461970680387
30
6.0060410125297537e-15
11
1045.6216603661037
21
33.678285216397228
31
1.4809836064941898e-14
0
LINE
5
110
100
AcDbEntity
8
0
100
AcDbLine
10
1033.9219981563856
20
227.81182206857576
30
3.2672939298041412e-15
11
998.09230621821166
21
244.28355668838805
31
1.3322676295501878e-14
0
LINE
5
111
100
AcDbEntity
8
0
100
AcDbLine
10
968.08881316857855
20
270.00886477835905
30
1.3322676295501878e-14
11
998.09230621821166
21
244.28355668838805
31
1.3322676295501878e-14
0
ARC
5
112
100
AcDbEntity
8
0
100
AcDbCircle
10
805.27441834340937
20
173.65199966784928
30
-4.4408920985006254e-15
40
5.0000000000000098
210
0
220
-0
230
1
100
AcDbArc
50
0.010493456544537165
51
90.010493456561832
0
LINE
5
113
100
AcDbEntity
8
0
100
AcDbLine
10
1031.3151810392328
20
14.499714879654286
30
1.4809836064941898e-14
11
998.09230621821166
21
4.6337437577898211
31
3.1086244689504383e-14
0
LINE
5
114
100
AcDbEntity
8
0
100
AcDbLine
10
757.92484756163265
20
253.66249928647508
30
-2.2204460492503131e-14
11
757.91110848283142
21
178.64515716992594
31
-1.7763568394002501e-14
0
CIRCLE
5
115
100
AcDbEntity
8
0
100
AcDbCircle
10
797.38897325592507
20
186.31569916019092
30
0
40
2.4999999999999982
210
0
220
0
230
1
0
LINE
5
116
100
AcDbEntity
8
0
100
AcDbLine
10
968.08881316857855
20
239.99999333876164
30
1.3322676295501878e-14
11
968.08881316857855
21
270.00886477835905
31
1.3322676295501878e-14
0
CIRCLE
5
117
100
AcDbEntity
8
0
100
AcDbCircle
10
770.76460290242062
20
241.02038387658712
30
0
40
2.4999999999999982
210
0
220
0
230
1
0
ARC
5
118
100
AcDbEntity
8
0
100
AcDbCircle
10
800.26183089797144
20
168.65108188723877
30
-4.4408920985006254e-15
40
5.0000000000000089
210
0
220
-0
230
1
100
AcDbArc
50
0.010493456544537165
51
90.010493456561832
0
LINE
5
119
100
AcDbEntity
8
0
100
AcDbLine
10
937.78051175423582
20
364.84830459508606
30
3.1120939159023919e-14
11
953.25818653082013
21
504.89331206485963
31
3.9968028886505635e-14
0
LINE
5
120
100
AcDbEntity
8
0
100
AcDbLine
10
767.93175136070533
20
365.18861677491537
30
-4.4408920985006254e-15
11
738.56969079978967
21
513.89053840856809
31
3.1086244689504383e-14
0
LINE
5
121
100
AcDbEntity
8
0
100
AcDbLine
10
800.25286107571787
20
365.18861677491537
30
3.1086244689504383e-14
11
937.78051175423582
21
364.84830459508606
31
3.1120939159023919e-14
0
LINE
5
122
100
AcDbEntity
8
0
100
AcDbLine
10
522.6165731481284
20
209.64619706804359
30
2.2837363299627845e-16
11
522.56295205964807
21
33.67828521640191
31
3.3646389676016131e-15
0
LINE
5
123
100
AcDbEntity
8
0
100
AcDbLine
10
815.31905936616317
20
-50.00023741859529
30
-2.0075537350033848e-15
11
914.60301419673272
21
-50.00023741859529
31
2.2204460492503127e-15
0
LINE
5
124
100
AcDbEntity
8
0
100
AcDbLine
10
937.78060394970817
20
349.20136457029173
30
1.3322676295501878e-14
11
800.25284200730027
21
349.20165012523336
31
1.3322659354842933e-14
0
LINE
5
125
100
AcDbEntity
8
0
100
AcDbLine
10
800.25286107571787
20
365.18861677491537
30
3.1086244689504383e-14
11
800.25275091283731
21
355.1882007914345
31
3.1086244689504383e-14
0
LINE
5
126
100
AcDbEntity
8
0
100
AcDbLine
10
800.23988598060487
20
339.47348028908749
30
-4.4408920985006254e-15
11
800.25562899060105
21
339.47348317234679
31
-4.4408920985006254e-15
0
ARC
5
127
100
AcDbEntity
8
0
100
AcDbCircle
10
1025.568040206171
20
209.64010265168929
30
6.0060410125297537e-15
40
20.000000000000021
210
0
220
-0
230
1
100
AcDbArc
50
0.017459217040982113
51
65.310668778402288
0
LINE
5
128
100
AcDbEntity
8
0
100
AcDbLine
10
927.60556737997501
20
-42.47916920392791
30
2.2204460492503111e-15
11
937.78280756876052
21
-24.785494005334073
31
0
0
LINE
5
129
100
AcDbEntity
8
0
100
AcDbLine
10
999.76296651671396
20
498.6829856974424
30
3.1086244689504383e-14
11
1012.0383129488362
21
360.86553871534966
31
3.9968028886505635e-14
0
LINE
5
130
100
AcDbEntity
8
0
100
AcDbLine
10
752.84834689197407
20
-50.063749872707426
30
-3.561790087531378e-15
11
754.86752853001235
21
-50.065041022295759
31
-3.5617900875313787e-15
0
LINE
5
131
100
AcDbEntity
8
0
100
AcDbLine
10
968.08881316857855
20
-10.002091649862354
30
-2.2204460492503127e-15
11
998.09230621821166
21
4.6337437577898211
31
3.1086244689504383e-14
0
LINE
5
132
100
AcDbEntity
8
0
100
AcDbLine
10
998.09230621821166
20
244.28355668838805
30
1.3322676295501878e-14
11
998.09230621821166
21
4.6337437577898211
31
3.1086244689504383e-14
0
LINE
5
133
100
AcDbEntity
8
0
100
AcDbLine
10
762.92352361830945
20
253.66249928647508
30
1.3322676295501878e-14
11
757.92484756163265
21
253.66249928647508
31
-2.2204460492503131e-14
0
ARC
5
134
100
AcDbEntity
8
0
100
AcDbCircle
10
795.26200562962117
20
253.65566115888419
30
1.3322676295501878e-14
40
4.9999999999999032
210
-6.5066304672559737e-19
220
-3.552713619217608e-15
230
1
100
AcDbArc
50
-90.010493456563111
51
0.010493456579269735
0
LINE
5
135
100
AcDbEntity
8
0
100
AcDbLine
10
630.40400848671504
20
349.20136457029173
30
-4.4408920985006254e-15
11
767.93177042912271
21
349.20165012523336
31
-4.4409090391595705e-15
0
LINE
5
136
100
AcDbEntity
8
0
100
AcDbLine
10
937.78051175423582
20
364.84830459508606
30
3.1120939159023919e-14
11
1017.1090213979378
21
360.91836197607842
31
1.3322676295501878e-14
0
LINE
5
137
100
AcDbEntity
8
0
100
AcDbLine
10
909.81131540691922
20
509.84815866050963
30
3.1086244689504383e-14
11
829.61492163663354
21
513.89053840856809
31
3.1086244689504383e-14
0
LINE
5
138
100
AcDbEntity
8
0
100
AcDbLine
10
805.28930545838591
20
18.6364966818258
30
-2.2204460492503127e-15
11
805.30029418107688
21
-41.36350633697468
31
-4.4408920985006254e-15
0
LINE
5
139
100
AcDbEntity
8
0
100
AcDbLine
10
810.28815767566641
20
103.63373150888819
30
4.4408920985006254e-15
11
810.28724194879089
21
103.63373167659927
31
4.4408920985006254e-15
0
CIRCLE
5
140
100
AcDbEntity
8
0
100
AcDbCircle
10
770.79577263271244
20
16.002732060194262
30
0
40
2.4999999999999982
210
0
220
0
230
1
0
ARC
5
141
100
AcDbEntity
8
0
100
AcDbCircle
10
800.28930554224166
20
18.635580954997835
30
-2.2204460492503127e-15
40
4.9999999999998677
210
0
220
-0
230
1
100
AcDbArc
50
0.010493456544537165
51
89.989506543442076
0
LINE
5
142
100
AcDbEntity
8
0
100
AcDbLine
10
767.86227110087952
20
-54.785494005334044
30
-2.2214762096283892e-15
11
767.86226649014952
21
-54.810669252297103
31
-4.4408920985006254e-15
0
CIRCLE
5
143
100
AcDbEntity
8
0
100
AcDbCircle
10
797.39232991033703
20
36.284835617124841
30
0
40
2.4999999999999982
210
0
220
0
230
1
0
ARC
5
144
100
AcDbEntity
8
0
100
AcDbCircle
10
754.8694468556846
20
-47.065041635624723
30
-6.8187615521530879e-16
40
2.9999999999999885
210
-6.1384587000904952e-19
220
-9.5997111451262526e-16
230
1
100
AcDbArc
50
269.96336267591937
51
359.96336267592574
0
LINE
5
145
100
AcDbEntity
8
0
100
AcDbLine
10
800.2902212690708
20
23.635580871142139
30
-2.2204460492503127e-15
11
762.88272053537196
21
23.642431881666521
31
0
0
LINE
5
146
100
AcDbEntity
8
0
100
AcDbLine
10
805.32844965436675
20
28.634658142945693
30
4.4408920985006254e-15
11
767.89713943439233
21
28.641513514067043
31
4.4414341995868681e-15
0
LINE
5
147
100
AcDbEntity
8
0
100
AcDbLine
10
810.31471375192427
20
-46.36625624221017
30
-2.2204460492503127e-15
11
810.32753392753739
21
23.633742583811923
31
-2.2204460492503127e-15
0
LINE
5
148
100
AcDbEntity
8
0
100
AcDbLine
10
810.32010174907953
20
-54.78549400533403
30
-2.2204460492503127e-15
11
810.32010602446212
21
-54.808838208838679
31
-2.2204460492503127e-15
0
LINE
5
149
100
AcDbEntity
8
0
100
AcDbLine
10
630.40180486766258
20
-24.78549400533408
30
-4.4387236941556552e-15
11
630.40410068218739
21
364.84830459508606
31
-4.4408920985006254e-15
0
LINE
5
150
100
AcDbEntity
8
0
100
AcDbLine
10
767.93175136070533
20
365.18861677491537
30
-4.4408920985006254e-15
11
767.93186152358567
21
355.1882007914345
31
-4.4408920985006254e-15
0
LINE
5
151
100
AcDbEntity
8
0
100
AcDbLine
10
800.25275091283731
20
355.1882007914345
30
3.1086244689504383e-14
11
800.25384732187126
21
349.20165012314601
31
1.3322659354966769e-14
0
LINE
5
152
100
AcDbEntity
8
0
100
AcDbLine
10
800.25286107571787
20
365.18861677491537
30
3.1086244689504383e-14
11
829.61492163663354
21
513.89053840856809
31
3.1086244689504383e-14
0
SPLINE
5
153
100
AcDbEntity
8
0
100
AcDbSpline
70
4
71
5
72
59
73
53
74
0
42
0.000000001
43
0.0000000001
44
0.0000000001
40
0
40
0
40
0
40
0
40
0
40
0
40
0.018181818181818181
40
0.036363636363636362
40
0.054545454545454543
40
0.072727272727272724
40
0.090909090909090912
40
0.1090909090909091
40
0.12727272727272729
40
0.14545454545454548
40
0.16363636363636366
40
0.18181818181818185
40
0.20000000000000004
40
0.21818181818181825
40
0.23636363636363639
40
0.25454545454545457
40
0.27272727272727282
40
0.29090909090909089
40
0.30909090909090914
40
0.32727272727272733
40
0.34545454545454551
40
0.3636363636363637
40
0.38181818181818172
40
0.40000000000000008
40
0.41818181818181832
40
0.43636363636363651
40
0.45454545454545459
40
0.47272727272727277
40
0.49090909090909102
40
0.50909090909090915
40
0.52727272727272745
40
0.54545454545454553
40
0.56363636363636371
40
0.5818181818181819
40
0.60000000000000009
40
0.61818181818181828
40
0.63636363636363646
40
0.65454545454545465
40
0.67272727272727284
40
0.69090909090909103
40
0.70909090909090922
40
0.7272727272727274
40
0.74545454545454559
40
0.76363636363636378
40
0.78181818181818175
40
0.80000000000000016
40
0.81818181818181823
40
0.83636363636363653
40
0.85454545454545472
40
0.86156689385808582
40
0.86156689385808582
40
0.86156689385808582
40
0.86156689385808582
40
0.86156689385808582
40
0.86156689385808582
41
1
41
1
41
1
41
1
41
1
41
1
41
1
41
1
41
1
41
1
41
1
41
1
41
1
41
1
41
1
41
1
41
1
41
1
41
1
41
1
41
1
41
1
41
1
41
1
41
1
41
1
41
1
41
1
41
1
41
1
41
1
41
1
41
1
41
1
41
1
41
1
41
1
41
1
41
1
41
1
41
1
41
1
41
1
41
1
41
1
41
1
41
1
41
1
41
1
41
1
41
1
41
1
41
1
10
909.81131540691922
20
509.84815866050963
30
3.1086244689504383e-14
10
911.9887544822127
20
509.60064090359992
30
-4.4408920985006254e-15
10
916.31339757774583
20
509.10904774028211
30
-4.4408920985006254e-15
10
922.70965708701488
20
508.38198498111149
30
-3.9968028886505635e-14
10
931.05649491722193
20
507.43323363490731
30
-4.4408920985006254e-15
10
941.18711602810833
20
506.28033363125888
30
3.1086244689504383e-14
10
951.01454929361876
20
505.15615860297038
30
-3.9968028886505635e-14
10
960.53902005580971
20
504.05197027267462
30
-4.4408920985006254e-15
10
969.76155276909776
20
502.95315281638403
30
-4.4408920985006254e-15
10
978.68435521425886
20
501.83759414169941
30
-4.4408920985006254e-15
10
987.31105282086196
20
500.6744185940986
30
-4.4408920985006254e-15
10
995.64732225890123
20
499.42179036870328
30
-3.9968028886505635e-14
10
1003.6994839191619
20
498.02944695330029
30
3.1086244689504383e-14
10
1011.4722575229309
20
496.44311474260871
30
-4.4408920985006254e-15
10
1018.9668258359652
20
494.60832352003831
30
-4.4408920985006254e-15
10
1026.1786925996209
20
492.47443496879833
30
-4.4408920985006254e-15
10
1033.0958002834991
20
489.99867567160487
30
-4.4408920985006254e-15
10
1039.696061520382
20
487.14997620805741
30
-4.4408920985006254e-15
10
1045.948476889288
20
483.91402786661928
30
-4.4408920985006254e-15
10
1051.8154912378254
20
480.29812972845895
30
-4.4408920985006254e-15
10
1057.2545318595789
20
476.33721631402744
30
-4.4408920985006254e-15
10
1062.2207671649765
20
472.0970772925773
30
3.1086244689504383e-14
10
1066.6671128414746
20
467.68483788425453
30
-3.9968028886505635e-14
10
1070.5564830809694
20
463.22757254311921
30
-3.9968028886505635e-14
10
1073.8835272468825
20
458.82890871519976
30
3.1086244689504383e-14
10
1076.6903917009918
20
454.53617068671525
30
3.1086244689504383e-14
10
1079.0923130652916
20
450.29414893022619
30
-4.4408920985006254e-15
10
1081.2754987954681
20
445.93308308259316
30
3.1086244689504383e-14
10
1083.4096472247904
20
441.25397995278638
30
-4.4408920985006254e-15
10
1085.5866746329425
20
436.0892402783071
30
-4.4408920985006254e-15
10
1087.7255178554126
20
430.38823038750166
30
3.1086244689504383e-14
10
1089.5802209549763
20
424.2346151516017
30
-4.4408920985006254e-15
10
1090.8521609889967
20
417.7956741067544
30
-4.4408920985006254e-15
10
1091.2776469116627
20
411.28929437614482
30
-4.4408920985006254e-15
10
1090.7188348532113
20
404.94484339235578
30
-4.4408920985006254e-15
10
1089.2712900915599
20
398.96431410305684
30
-4.4408920985006254e-15
10
1087.1785568595062
20
393.50478977556952
30
3.1086244689504383e-14
10
1084.705938863797
20
388.66284566977521
30
-4.4408920985006254e-15
10
1082.0433224279245
20
384.46239800573295
30
-4.4408920985006254e-15
10
1079.1606158628178
20
380.83056911086487
30
3.1086244689504383e-14
10
1075.8357262766949
20
377.62359569749088
30
-4.4408920985006254e-15
10
1071.8081996189351
20
374.6902643242808
30
3.1086244689504383e-14
10
1066.8960711083075
20
371.92427505815374
30
-3.9968028886505635e-14
10
1061.1283870231455
20
369.321409519469
30
1.3322676295501878e-14
10
1054.6764048432844
20
366.94402231080085
30
1.3322676295501878e-14
10
1047.7864683672881
20
364.88577456833292
30
1.3322676295501878e-14
10
1040.7137307903199
20
363.23711473468768
30
-2.2204460492503131e-14
10
1033.6523206280883
20
362.0485996058278
30
1.3322676295501878e-14
10
1027.532858114396
20
361.39230307653236
30
-4.4408920985006254e-15
10
1022.8514723880621
20
361.09942954049438
30
1.3322676295501878e-14
10
1019.5581364820823
20
360.97712780491804
30
-4.4408920985006254e-15
10
1017.6428575780371
20
360.92980540203223
30
3.1086244689504383e-14
10
1017.1090213979378
20
360.91836197607842
30
1.3322676295501878e-14
0
LINE
5
154
100
AcDbEntity
8
0
100
AcDbLine
10
810.27441825955384
20
173.6529153946789
30
-4.4408920985006254e-15
11
810.28526819303511
21
114.4107213819693
31
-8.1983142428415651e-15
0
LINE
5
155
100
AcDbEntity
8
0
100
AcDbLine
10
800.2524600171032
20
344.54809154837079
30
-4.4408920985006254e-15
11
800.2546995995001
21
344.54809195854
31
-4.4408921315878507e-15
0
LINE
5
156
100
AcDbEntity
8
0
100
AcDbLine
10
600.09579926784431
20
239.99999333876167
30
-2.2204460492503131e-14
11
600.09579926784431
21
-10.002091649862317
31
-3.9968028886505635e-14
0
LINE
5
157
100
AcDbEntity
8
0
100
AcDbLine
10
805.26183081411591
20
168.65199761406674
30
-4.4408920985006254e-15
11
805.27096522241845
21
118.77681729185888
31
-4.0463575743466686e-16
0
LINE
5
158
100
AcDbEntity
8
0
100
AcDbLine
10
800.25284200730027
20
349.20165012523336
30
1.3322659354842933e-14
11
800.25420205512785
21
339.47348291101014
31
-4.4408920985006254e-15
0
LINE
5
159
100
AcDbEntity
8
0
100
AcDbLine
10
767.93186152358567
20
355.1882007914345
30
-4.4408920985006254e-15
11
767.93076511455183
21
349.20165012314601
31
-4.4409090390357367e-15
0
ARC
5
160
100
AcDbEntity
8
0
100
AcDbCircle
10
1025.6216612946512
20
33.672190800047829
30
1.4809836064941898e-14
40
20.000000000000302
210
0
220
0
230
1
100
AcDbArc
50
-73.460518235504026
51
0.017459217040982113
0
LINE
5
161
100
AcDbEntity
8
0
100
AcDbLine
10
570.09230621821143
20
244.28355668838805
30
-4.4408920985006254e-15
11
570.09230621821143
21
4.6337437577898211
31
1.3322676295501878e-14
0
LINE
5
162
100
AcDbEntity
8
0
100
AcDbLine
10
968.08881316857855
20
-10.002091649862354
30
-2.2204460492503127e-15
11
937.78280756876052
21
-24.785494005334073
31
0
0
LINE
5
163
100
AcDbEntity
8
0
100
AcDbLine
10
762.90718854490069
20
83.511557021005487
30
-8.0936078332047259e-16
11
762.89805524507744
21
33.642429157042422
31
-8.8817841970012507e-15
0
LINE
5
164
100
AcDbEntity
8
0
100
AcDbLine
10
600.09579926784431
20
-10.002091649862317
30
-3.9968028886505635e-14
11
570.09230621821143
21
4.6337437577898211
31
1.3322676295501878e-14
0
LINE
5
165
100
AcDbEntity
8
0
100
AcDbLine
10
815.31905936616317
20
-50.00023741859529
30
-2.0075537350033848e-15
11
813.31548513773259
21
-50.00023741859529
31
-2.0928639261285014e-15
0
LINE
5
166
100
AcDbEntity
8
0
100
AcDbLine
10
968.08881316857855
20
270.00886477835905
30
1.3322676295501878e-14
11
937.78060394970817
21
349.20136457029173
31
1.3322676295501878e-14
0
LINE
5
167
100
AcDbEntity
8
0
100
AcDbLine
10
600.09579926784431
20
239.99999333876167
30
-2.2204460492503131e-14
11
600.09579926784431
21
270.00886477835911
31
-2.2204460492503131e-14
0
LINE
5
168
100
AcDbEntity
8
0
100
AcDbLine
10
640.57904505644797
20
-42.47916920392791
30
-2.2204460492503127e-15
11
630.40180486766258
21
-24.78549400533408
31
-4.4387236941556552e-15
0
LINE
5
169
100
AcDbEntity
8
0
100
AcDbLine
10
600.09579926784431
20
-10.002091649862317
30
-3.9968028886505635e-14
11
630.40180486766258
21
-24.78549400533408
31
-4.4387236941556552e-15
0
ARC
5
170
100
AcDbEntity
8
0
100
AcDbCircle
10
542.56295113110059
20
33.672190800047829
30
1.4809836064941898e-14
40
20.000000000000234
210
-5.7225982829847642e-16
220
1.7437949091427537e-19
230
1
100
AcDbArc
50
179.98254078295903
51
253.4605182355034
0
SPLINE
5
171
100
AcDbEntity
8
0
100
AcDbSpline
70
4
71
5
72
16
73
10
74
0
42
0.000000001
43
0.0000000001
44
0.0000000001
40
0
40
0
40
0
40
0
40
0
40
0
40
0.20000000000000001
40
0.40000000000000002
40
0.60000000000000009
40
0.80000000000000004
40
1
40
1
40
1
40
1
40
1
40
1
41
1
41
1
41
1
41
1
41
1
41
1
41
1
41
1
41
1
41
1
10
555.13664234187411
20
-1.3633937582854783
30
-4.4408920985006254e-15
10
555.24427614678109
20
-1.4421736385960005
30
0
10
555.46013384234732
20
-1.5993391999419238
30
0
10
555.78568920690168
20
-1.8339059054373308
30
0
10
556.22294806399987
20
-2.1445354937462136
30
-2.2204460492503127e-15
10
556.77401341093343
20
-2.5298357380691883
30
0
10
557.21847937743155
20
-2.8356864008106171
30
-2.2204460492503127e-15
10
557.55424979048576
20
-3.0634796616777304
30
0
10
557.77929374217729
20
-3.2145539551056412
30
-2.2204460492503127e-15
10
557.89211521439063
20
-3.2898939714499282
30
-2.2204460492503127e-15
0
LINE
5
172
100
AcDbEntity
8
0
100
AcDbLine
10
757.8645106873438
20
-54.785494005334044
30
0
11
757.86450641196097
21
-54.808838208838679
31
0
0
ARC
5
173
100
AcDbEntity
8
0
100
AcDbCircle
10
914.60304534189231
20
-35.000237418627698
30
2.2204460492503127e-15
40
14.999999999999925
210
0
220
0
230
1
100
AcDbArc
50
269.99988103425352
51
330.09288070019892
0
ARC
5
174
100
AcDbEntity
8
0
100
AcDbCircle
10
653.58156709453056
20
-35.000237418627698
30
-2.2204460492503127e-15
40
14.999999999999885
210
0
220
0
230
1
100
AcDbArc
50
209.90711929980128
51
270.00011896574688
0
LINE
5
175
100
AcDbEntity
8
0
100
AcDbLine
10
968.08881316857855
20
239.99999333876164
30
1.3322676295501878e-14
11
968.08881316857855
21
-10.002091649862354
31
-2.2204460492503127e-15
0
LINE
5
176
100
AcDbEntity
8
0
100
AcDbLine
10
757.89645651807575
20
98.643326722470889
30
-1.3322676295501878e-14
11
757.88363634605719
21
28.643347524638934
31
0
0
LINE
5
177
100
AcDbEntity
8
0
100
AcDbLine
10
767.93177042912271
20
349.20165012523336
30
-4.4409090391595705e-15
11
767.92352353445403
21
258.66158355964325
31
3.1086244689504383e-14
0
LINE
5
178
100
AcDbEntity
8
0
100
AcDbLine
10
752.84834689197407
20
-50.063749872707426
30
-3.561790087531378e-15
11
653.58159823969027
21
-50.00023741859529
31
-4.4408920985006254e-15
0
LINE
5
179
100
AcDbEntity
8
0
100
AcDbLine
10
536.86943138651873
20
14.49971487965427
30
1.1896747476138086e-14
11
570.09230620753988
21
4.6337437577898566
31
3.1086244689504383e-14
0
LINE
5
180
100
AcDbEntity
8
0
100
AcDbLine
10
658.37329702950365
20
509.84815866050963
30
3.1086244689504383e-14
11
738.56969079978967
21
513.89053840856809
31
3.1086244689504383e-14
0
LINE
5
181
100
AcDbEntity
8
0
100
AcDbLine
10
767.93175136070533
20
365.18861677491537
30
-4.4408920985006254e-15
11
630.40410068218739
21
364.84830459508606
31
-4.4408920985006254e-15
0
ARC
5
182
100
AcDbEntity
8
0
100
AcDbCircle
10
805.28724186496606
20
103.63373150888825
30
4.4408920985006254e-15
40
5.0000000838248599
210
5.9582921918812859e-23
220
-1.7763568394002181e-15
230
1
100
AcDbArc
50
1.7075472925031877e-06
51
0.010493456544537165
0
LINE
5
183
100
AcDbEntity
8
0
100
AcDbLine
10
800.32234133554368
20
-54.78549400533403
30
-4.438829763745714e-15
11
800.32234594627369
21
-54.810669252297103
31
0
0
LINE
5
184
100
AcDbEntity
8
0
100
AcDbLine
10
600.09579926784431
20
270.00886477835911
30
-2.2204460492503131e-14
11
630.40400848671504
21
349.20136457029173
31
-4.4408920985006254e-15
0
LINE
5
185
100
AcDbEntity
8
0
100
AcDbLine
10
810.31471375192427
20
-46.36625624221017
30
-2.2204460492503127e-15
11
810.31548734569458
21
-47.003877166780214
31
-2.2204460492503127e-15
0
LINE
5
186
100
AcDbEntity
8
0
100
AcDbLine
10
630.40410068218739
20
364.84830459508606
30
-4.4408920985006254e-15
11
551.07559103848519
21
360.91836197607842
31
-4.4408920985006254e-15
0
CIRCLE
5
187
100
AcDbEntity
8
0
100
AcDbCircle
10
797.35781451477453
20
-38.733372938719903
30
0
40
2.4999999999999982
210
0
220
0
230
1
0
ARC
5
188
100
AcDbEntity
8
0
100
AcDbCircle
10
767.92552763433946
20
183.64515955919072
30
-4.4408920985006254e-15
40
5.0000000000000089
210
0
220
0
230
1
100
AcDbArc
50
179.98950654345546
51
270.0104934565631
0
LINE
5
189
100
AcDbEntity
8
0
100
AcDbLine
10
795.26108990279158
20
248.65566124273985
30
-4.4408920985006254e-15
11
767.93743492315343
21
248.66066544361288
31
1.3322676295501878e-14
0
CIRCLE
5
190
100
AcDbEntity
8
0
100
AcDbCircle
10
770.79576713814174
20
186.299989018932
30
0
40
2.4999999999999982
210
0
220
0
230
1
0
ARC
5
191
100
AcDbEntity
8
0
100
AcDbCircle
10
800.30029426493252
20
-41.36442206380265
30
-4.4408920985006254e-15
40
4.9999999999999742
210
1.6266576163090921e-19
220
8.8817840480438938e-16
230
1
100
AcDbArc
50
-90.010493456559246
51
0.010493456544537165
0
ARC
5
192
100
AcDbEntity
8
0
100
AcDbCircle
10
762.92352361830945
20
258.66249928647511
30
3.1086244689504383e-14
40
5
210
0
220
-3.5527136788005009e-15
230
1
100
AcDbArc
50
270
51
359.98950654342076
0
LINE
5
193
100
AcDbEntity
8
0
100
AcDbLine
10
568.42164591970936
20
498.6829856974424
30
-3.9968028886505635e-14
11
556.14629948758682
21
360.86553871534966
31
-3.1086244689504383e-14
0
CIRCLE
5
194
100
AcDbEntity
8
0
100
AcDbCircle
10
770.76460839699121
20
-38.717662797460839
30
0
40
2.4999999999999982
210
0
220
0
230
1
0
LINE
5
195
100
AcDbEntity
8
0
100
AcDbLine
10
630.40410068218739
20
364.84830459508606
30
-4.4408920985006254e-15
11
614.92642590560285
21
504.89331206485963
31
-4.4408920985006254e-15
0
ARC
5
196
100
AcDbEntity
8
0
100
AcDbCircle
10
762.88363626220166
20
28.642431797810968
30
0
40
5.0000000000000089
210
0
220
0
230
1
100
AcDbArc
50
179.98950654345546
51
269.98950654343554
0
CIRCLE
5
197
100
AcDbEntity
8
0
100
AcDbCircle
10
797.38897875049577
20
15.987021918935207
30
0
40
2.4999999999999982
210
0
220
0
230
1
0
LINE
5
198
100
AcDbEntity
8
0
100
AcDbLine
10
810.32753392753739
20
23.633742583811923
30
-2.2204460492503127e-15
11
810.30189357545112
21
23.633747279723707
31
-4.4408918338028309e-15
0
ARC
5
199
100
AcDbEntity
8
0
100
AcDbCircle
10
813.31548513773259
20
-47.000237418595319
30
-2.0927089491691132e-15
40
2.9999999999999698
210
-4.2579002022771768e-17
220
-5.1658986462860612e-20
230
1
100
AcDbArc
50
180.06951408687971
51
270
0
CIRCLE
5
200
100
AcDbEntity
8
0
100
AcDbCircle
10
797.35780902020406
20
241.03609401784607
30
0
40
2.4999999999999982
210
0
220
0
230
1
0
LINE
5
201
100
AcDbEntity
8
0
100
AcDbLine
10
767.86227110087952
20
-54.785494005334044
30
-2.2214762096283892e-15
11
767.9261369195799
21
-54.785494005334044
31
-2.2204460492503446e-15
0
LINE
5
202
100
AcDbEntity
8
0
100
AcDbLine
10
600.09579926784431
20
270.00886477835911
30
-2.2204460492503131e-14
11
570.09230621821143
21
244.28355668838805
31
-4.4408920985006254e-15
0
CIRCLE
5
203
100
AcDbEntity
8
0
100
AcDbCircle
10
797.39232991033703
20
165.98788431708815
30
0
40
2.4999999999999982
210
0
220
0
230
1
0
CIRCLE
5
204
100
AcDbEntity
8
0
100
AcDbCircle
10
770.79911995623422
20
36.279598903137746
30
0
40
2.4999999999999982
210
0
220
0
230
1
0
LINE
5
205
100
AcDbEntity
8
0
100
AcDbLine
10
534.26261426936605
20
227.81182206857576
30
3.2672939298041412e-15
11
570.09230620753988
21
244.28355668838805
31
1.3322676295501878e-14
0
ARC
5
206
100
AcDbEntity
8
0
100
AcDbCircle
10
542.61657221958069
20
209.64010265168929
30
6.0060410125297537e-15
40
20.000000000000053
210
-5.7198444913406511e-17
220
1.2441935885276466e-16
230
1
100
AcDbArc
50
114.6893312215977
51
179.98254078295903
0
LINE
5
207
100
AcDbEntity
8
0
100
AcDbLine
10
767.92644336116905
20
178.64515964304627
30
-4.4408920985006254e-15
11
805.27350261657989
21
178.65199958399381
31
-4.4408920985006254e-15
0
SPLINE
5
208
100
AcDbEntity
8
0
100
AcDbSpline
70
4
71
5
72
59
73
53
74
0
42
0.000000001
43
0.0000000001
44
0.0000000001
40
0
40
0
40
0
40
0
40
0
40
0
40
0.018181818181818181
40
0.036363636363636362
40
0.054545454545454543
40
0.072727272727272724
40
0.090909090909090912
40
0.1090909090909091
40
0.12727272727272729
40
0.14545454545454548
40
0.16363636363636366
40
0.18181818181818185
40
0.20000000000000004
40
0.21818181818181825
40
0.23636363636363639
40
0.25454545454545457
40
0.27272727272727282
40
0.29090909090909089
40
0.30909090909090914
40
0.32727272727272733
40
0.34545454545454551
40
0.3636363636363637
40
0.38181818181818172
40
0.40000000000000008
40
0.41818181818181832
40
0.43636363636363651
40
0.45454545454545459
40
0.47272727272727277
40
0.49090909090909102
40
0.50909090909090915
40
0.52727272727272745
40
0.54545454545454553
40
0.56363636363636371
40
0.5818181818181819
40
0.60000000000000009
40
0.61818181818181828
40
0.63636363636363646
40
0.65454545454545465
40
0.67272727272727284
40
0.69090909090909103
40
0.70909090909090922
40
0.7272727272727274
40
0.74545454545454559
40
0.76363636363636378
40
0.78181818181818175
40
0.80000000000000016
40
0.81818181818181823
40
0.83636363636363653
40
0.85454545454545472
40
0.86156689385808582
40
0.86156689385808582
40
0.86156689385808582
40
0.86156689385808582
40
0.86156689385808582
40
0.86156689385808582
41
1
41
1
41
1
41
1
41
1
41
1
41
1
41
1
41
1
41
1
41
1
41
1
41
1
41
1
41
1
41
1
41
1
41
1
41
1
41
1
41
1
41
1
41
1
41
1
41
1
41
1
41
1
41
1
41
1
41
1
41
1
41
1
41
1
41
1
41
1
41
1
41
1
41
1
41
1
41
1
41
1
41
1
41
1
41
1
41
1
41
1
41
1
41
1
41
1
41
1
41
1
41
1
41
1
10
658.37329702950365
20
509.84815866050963
30
3.1086244689504383e-14
10
656.19585795421017
20
509.60064090359981
30
3.1086244689504383e-14
10
651.87121485867715
20
509.10904774028211
30
3.1086244689504383e-14
10
645.47495534940799
20
508.38198498111137
30
3.1086244689504383e-14
10
637.12811751920106
20
507.43323363490731
30
-3.9968028886505635e-14
10
626.99749640831442
20
506.28033363125888
30
6.661338147750938e-14
10
617.17006314280434
20
505.15615860297038
30
-3.9968028886505635e-14
10
607.64559238061327
20
504.05197027267462
30
-4.4408920985006254e-15
10
598.42305966732511
20
502.95315281638409
30
-4.4408920985006254e-15
10
589.50025722216412
20
501.83759414169941
30
3.1086244689504383e-14
10
580.87355961556136
20
500.67441859409882
30
-3.9968028886505635e-14
10
572.53729017752187
20
499.42179036870328
30
3.1086244689504383e-14
10
564.48512851726105
20
498.02944695330029
30
3.1086244689504383e-14
10
556.71235491349216
20
496.44311474260871
30
-4.4408920985006254e-15
10
549.21778660045766
20
494.60832352003831
30
-3.9968028886505635e-14
10
542.00591983680215
20
492.47443496879833
30
-3.9968028886505635e-14
10
535.08881215292411
20
489.9986756716047
30
3.1086244689504383e-14
10
528.48855091604094
20
487.14997620805724
30
6.661338147750938e-14
10
522.23613554713472
20
483.91402786661928
30
-4.4408920985006254e-15
10
516.36912119859733
20
480.29812972845895
30
-4.4408920985006254e-15
10
510.93008057684392
20
476.33721631402744
30
-4.4408920985006254e-15
10
505.96384527144693
20
472.0970772925773
30
6.661338147750938e-14
10
501.51749959494856
20
467.68483788425453
30
-3.9968028886505635e-14
10
497.62812935545384
20
463.22757254311932
30
-3.9968028886505635e-14
10
494.30108518954029
20
458.82890871519982
30
-4.4408920985006254e-15
10
491.4942207354311
20
454.53617068671525
30
-4.4408920985006254e-15
10
489.0922993711315
20
450.29414893022613
30
3.1086244689504383e-14
10
486.90911364095513
20
445.93308308259316
30
-4.4408920985006254e-15
10
484.7749652116326
20
441.25397995278638
30
-4.4408920985006254e-15
10
482.59793780348076
20
436.0892402783071
30
-4.4408920985006254e-15
10
480.4590945810105
20
430.38823038750166
30
-4.4408920985006254e-15
10
478.60439148144707
20
424.2346151516017
30
-4.4408920985006254e-15
10
477.33245144742637
20
417.7956741067544
30
-4.4408920985006254e-15
10
476.90696552476038
20
411.28929437614482
30
-4.4408920985006254e-15
10
477.46577758321177
20
404.94484339235578
30
3.1086244689504383e-14
10
478.91332234486299
20
398.96431410305672
30
3.1086244689504383e-14
10
481.00605557691671
20
393.50478977556969
30
-4.4408920985006254e-15
10
483.47867357262612
20
388.66284566977521
30
3.1086244689504383e-14
10
486.14129000849829
20
384.46239800573295
30
3.1086244689504383e-14
10
489.02399657360502
20
380.83056911086481
30
6.661338147750938e-14
10
492.34888615972818
20
377.62359569749088
30
-3.9968028886505635e-14
10
496.37641281748802
20
374.6902643242808
30
-4.4408920985006254e-15
10
501.2885413281158
20
371.92427505815368
30
3.1086244689504383e-14
10
507.05622541327756
20
369.32140951946883
30
3.1086244689504383e-14
10
513.50820759313865
20
366.94402231080085
30
-2.2204460492503131e-14
10
520.39814406913501
20
364.88577456833292
30
1.3322676295501878e-14
10
527.47088164610341
20
363.23711473468768
30
1.3322676295501878e-14
10
534.53229180833455
20
362.0485996058278
30
1.3322676295501878e-14
10
540.65175432202659
20
361.39230307653236
30
1.3322676295501878e-14
10
545.33314004836109
20
361.09942954049438
30
1.3322676295501878e-14
10
548.62647595434078
20
360.97712780491804
30
-2.2204460492503131e-14
10
550.54175485838607
20
360.92980540203223
30
-4.4408920985006254e-15
10
551.07559103848519
20
360.91836197607842
30
-4.4408920985006254e-15
0
LINE
5
209
100
AcDbEntity
8
0
100
AcDbLine
10
810.30180062223872
20
24.141285160534913
30
-4.3952479795175494e-15
11
810.31471375192427
21
-46.36625624221017
31
-2.2204460492503127e-15
0
LINE
5
210
100
AcDbEntity
8
0
100
AcDbLine
10
762.91202412580537
20
173.64424152695193
30
1.3322676295501878e-14
11
800.26091517114196
21
173.65108180338322
31
-4.4408920985006254e-15
0
ARC
5
211
100
AcDbEntity
8
0
100
AcDbCircle
10
767.93651919632362
20
243.6606655274685
30
1.3322676295501878e-14
40
4.9999999999999387
210
0
220
-0
230
1
100
AcDbArc
50
89.98950654343426
51
179.98950654345546
0
CIRCLE
5
212
100
AcDbEntity
8
0
100
AcDbCircle
10
770.79911995623422
20
165.99312103107525
30
0
40
2.4999999999999982
210
0
220
0
230
1
0
LINE
5
213
100
AcDbEntity
8
0
100
AcDbLine
10
800.32234133554368
20
-54.78549400533403
30
-4.438829763745714e-15
11
800.25847551684308
21
-54.78549400533403
31
-4.4408920985005938e-15
0
ARC
5
214
100
AcDbEntity
8
0
100
AcDbCircle
10
805.32753392753739
20
23.634658226801246
30
4.4408920985006254e-15
40
5
210
0
220
0
230
1
100
AcDbArc
50
0
51
89.989506543439475
0
LINE
5
215
100
AcDbEntity
8
0
100
AcDbLine
10
757.8699004436146
20
-46.356651217526093
30
0
11
757.86944624235559
21
-47.066959961296902
31
-6.8187615521529064e-16
0
LINE
5
216
100
AcDbEntity
8
0
100
AcDbLine
10
800.29937853810327
20
-46.364421979947053
30
0
11
757.8699004436146
21
-46.356651217526093
31
0
0
ARC
5
217
100
AcDbEntity
8
0
100
AcDbCircle
10
767.89805516122192
20
33.641513430211418
30
-8.8817841970012507e-15
40
5.0000000000000098
210
0
220
0
230
1
100
AcDbArc
50
179.98950654345546
51
269.9895065434369
0
ARC
5
218
100
AcDbEntity
8
0
100
AcDbCircle
10
762.91110839897578
20
178.64424144309629
30
1.3322676295501878e-14
40
5.0000000000000098
210
-6.2172488336306811e-15
220
1.1386603317697865e-18
230
1
100
AcDbArc
50
179.98950654342073
51
270.0104934565631
0
LINE
5
219
100
AcDbEntity
8
0
100
AcDbLine
10
810.32753392753739
20
23.633742583811923
30
-2.2204460492503127e-15
11
810.32753392753739
21
23.634658226801246
31
4.4408920985006254e-15
0
LINE
5
220
100
AcDbEntity
8
0
100
AcDbLine
10
757.92393183480328
20
248.66249937033052
30
-2.2204460492503131e-14
11
757.92484756163265
21
253.66249928647508
31
-2.2204460492503131e-14
0
LINE
5
221
100
AcDbEntity
8
0
100
AcDbLine
10
800.25562899060105
20
339.47348317234679
30
-4.4408920985006254e-15
11
800.26200554576553
21
253.65657688571602
31
0
0
LINE
5
222
100
AcDbEntity
8
0
100
AcDbLine
10
762.93651928017937
20
243.66158125429649
30
1.3322676295501878e-14
11
762.92552771819499
21
183.64607528601869
31
-4.4408920985006254e-15
0
LINE
5
223
100
AcDbEntity
8
0
100
AcDbLine
10
762.89185176181707
20
113.7690556696319
30
-1.2572470676959876e-29
11
800.27188103310345
21
113.77590164888495
31
-1.4174844390690056e-30
0
LINE
5
224
100
AcDbEntity
8
0
100
AcDbLine
10
797.38656849347012
20
88.505242366098216
30
0
11
767.90810418787464
21
88.510641210320443
31
1.392832535780849e-29
0
LINE
5
225
100
AcDbEntity
8
0
100
AcDbLine
10
810.28526819303511
20
114.4107213819693
30
-8.1983142428415651e-15
11
810.34415931278886
21
114.41073216760516
31
-2.2204460492503127e-15
0
LINE
5
226
100
AcDbEntity
8
0
100
AcDbLine
10
767.6588929086405
20
88.504472420541418
30
-1.0059434400936461e-18
11
805.3294136508556
21
88.48304951462319
31
-3.2818519498899085e-15
0
LINE
5
227
100
AcDbEntity
8
0
100
AcDbLine
10
757.89553920162302
20
93.634647235717679
30
-4.4408920985006254e-15
11
757.89276757250207
21
108.76814002665807
31
-1.1028618056069295e-15
0
LINE
5
228
100
AcDbEntity
8
0
100
AcDbLine
10
810.34415931278886
20
114.41073216760516
30
-2.2204460492503127e-15
11
810.33225629950016
21
93.48020524892911
31
-3.4286866947941025e-15
0
LINE
5
229
100
AcDbEntity
8
0
100
AcDbLine
10
810.292869971389
20
24.222397940983758
30
4.4408920985006254e-15
11
810.28526819303511
21
10.855259502681918
31
-8.1983142428415651e-15
0
ARC
5
230
100
AcDbEntity
8
0
100
AcDbCircle
10
762.89276748864631
20
108.76905575348759
30
-1.1028618056069249e-15
40
4.9999999999998677
210
4.0396805785347506e-20
220
-2.2057235742214441e-16
230
1
100
AcDbArc
50
90.010493456559246
51
180.01049345654451
0
ARC
5
231
100
AcDbEntity
8
0
100
AcDbCircle
10
800.27096530627409
20
118.77590156502939
30
-4.0463575743466573e-16
40
4.999999999999992
210
-1.482143276999352e-20
220
8.0927150129694635e-17
230
1
100
AcDbArc
50
-89.989506543439475
51
0.010493456544537165
0
ARC
5
232
100
AcDbEntity
8
0
100
AcDbCircle
10
767.90718846104505
20
83.510641294175997
30
-8.0936078332046727e-16
40
5.0000000000000098
210
-2.9646135362116858e-20
220
-1.6187215394931977e-16
230
1
100
AcDbArc
50
89.989506543436875
51
179.98950654345546
0
ARC
5
233
100
AcDbEntity
8
0
100
AcDbCircle
10
805.33225710802503
20
93.483048706098259
30
-2.9932207905168778e-15
40
5.0000000000000053
210
8.7060338358468603e-17
220
-5.7775751685887423e-17
230
1
100
AcDbArc
50
269.96741637923674
51
359.9674163792418
0
CIRCLE
5
234
100
AcDbEntity
8
0
100
AcDbCircle
10
797.4004890758788
20
121.4376694385375
30
0
40
2.4999999999999982
210
0
220
0
230
1
0
CIRCLE
5
235
100
AcDbEntity
8
0
100
AcDbCircle
10
770.80728282392658
20
121.42269187873005
30
0
40
2.4999999999999982
210
0
220
0
230
1
0
CIRCLE
5
236
100
AcDbEntity
8
0
100
AcDbCircle
10
797.39232991033703
20
80.847011178963854
30
0
40
2.4999999999999982
210
0
220
0
230
1
0
CIRCLE
5
237
100
AcDbEntity
8
0
100
AcDbCircle
10
770.79911995623422
20
80.852247892950942
30
0
40
2.4999999999999982
210
0
220
0
230
1
0
ELLIPSE
5
238
100
AcDbEntity
8
0
100
AcDbEllipse
10
696.47139998906437
20
166.05244975949421
30
8.8817841970012523e-15
11
0.00092213690185454378
21
-2.5174998311148973
31
0.0
40
0.99995504197455587
41
3.1566601725316743
42
6.2681178418278618
0
ELLIPSE
5
239
100
AcDbEntity
8
0
100
AcDbEllipse
10
661.72503937002853
20
166.03972248899507
30
-8.8817841970012523e-15
11
-0.00092213690185454378
21
2.5174998311148973
31
0.0
40
0.9996848650729494
41
3.181501789050913
42
6.2432762253082057
0
ELLIPSE
5
240
100
AcDbEntity
8
0
100
AcDbEllipse
10
696.46407417455077
20
186.05244841780529
30
-8.8817841970012523e-15
11
0.00092213690185454378
21
-2.5174998311148973
31
0.0
40
0.99995504197455587
41
3.1566601725316183
42
6.2681178418278618
0
ELLIPSE
5
241
100
AcDbEntity
8
0
100
AcDbEllipse
10
661.92586493964029
20
166.03979604954361
30
-8.8817841970012523e-15
11
0.00092213690185454378
21
-2.5174998311148973
31
0.0
40
0.9996848650729494
41
3.1815017890509139
42
6.2432762253082066
0
ELLIPSE
5
242
100
AcDbEntity
8
0
100
AcDbEllipse
10
696.39554158724604
20
166.05242197326331
30
8.8817841970012523e-15
11
0.00092213690185454378
21
-2.5174998311148973
31
0.0
40
0.99995504197455587
41
0.015067465352065559
42
3.1265252418278848
0
ELLIPSE
5
243
100
AcDbEntity
8
0
100
AcDbEllipse
10
696.38821577273245
20
186.05242063157436
30
-8.8817841970012523e-15
11
0.00092213690185454378
21
-2.5174998311148973
31
0.0
40
0.99995504197455587
41
0.015067465352065346
42
3.1265252418278844
0
ELLIPSE
5
244
100
AcDbEntity
8
0
100
AcDbEllipse
10
661.91853912512715
20
186.03979470785461
30
-8.8817841970012523e-15
11
0.00092213690185454378
21
-2.5174998311148973
31
0.0
40
0.9996848650729494
41
3.1815017890508566
42
6.2432762253082057
0
ELLIPSE
5
245
100
AcDbEntity
8
0
100
AcDbEllipse
10
661.71771355551527
20
186.03972114730607
30
-8.8817841970012523e-15
11
-0.00092213690185454378
21
2.5174998311148973
31
0.0
40
0.9996848650729494
41
3.1815017890509125
42
6.243276225308092
0
ENDSEC
0
SECTION
2
OBJECTS
0
DICTIONARY
5
C
100
AcDbDictionary
3
ACAD_GROUP
350
D
3
ACAD_MLINESTYLE
350
17
0
DICTIONARY
5
D
100
AcDbDictionary
0
DICTIONARY
5
1A
330
C
100
AcDbDictionary
0
DICTIONARY
5
17
100
AcDbDictionary
0
ENDSEC
0
EOF
